<?xml version="1.0" encoding="UTF-8"?>
<svg id="Layer_1" data-name="Layer 1" xmlns="http://www.w3.org/2000/svg" xmlns:xlink="http://www.w3.org/1999/xlink" viewBox="0 0 294.77 639">
  <defs>
    <style>
      .cls-1, .cls-2 {
        fill: none;
      }

      .cls-3 {
        fill: #f1a7b3;
        stroke-width: 5px;
      }

      .cls-3, .cls-2 {
        stroke: #231f20;
        stroke-miterlimit: 10;
      }

      .cls-4 {
        fill: #231f20;
      }

      .cls-5 {
        fill: #fff;
      }

      .cls-2 {
        stroke-linecap: round;
        stroke-width: 7px;
      }

      .cls-6 {
        fill: #e97a88;
      }

      .cls-7 {
        clip-path: url(#clippath);
      }
    </style>
    <clipPath id="clippath">
      <rect class="cls-1" x=".02" y="0" width="294.74" height="639"/>
    </clipPath>
  </defs>
  <g class="cls-7">
    <rect class="cls-3" x="45.16" y="278.6" width="206.64" height="70.6" rx="32.27" ry="32.27"/>
    <g>
      <path class="cls-6" d="M305.35,602.07c-6.17,4.84-13.21,8.54-20.57,11.2-3.68,1.33-7.46,2.4-11.3,3.18-1.04.21-2.08.35-3.13.48-.01.33-.03.68-.04.76-.35,2.52.42,5.07,1.95,7.1,3.81,5.06,5.02,6.9,5.57,7.62,2.41,3.21,4.95,6.86,4.45,10.84-.51,4.13-4.25,7.2-8.19,8.54-2.14.72-4.57,1.06-6.62.11-2.15-.99-3.56-3.4-3.36-5.76.2-2.35,1.99-4.5,4.27-5.12.92-.25,1.9-.27,2.74-.72-1.46-1.89-3.72-4.6-8.19-10.37-1.38-1.79-2.08-4.02-1.95-6.27.09-1.74.19-3.47.35-5.21-.11,0-.21.01-.31.02-2.32.06-4.4-.61-6.64-.82-.84-.08-1.68-.18-2.5-.3-.97,9.08-2.2,18.67-2.32,19.73-.46,3.98-1.14,8.38-4.24,10.92-3.22,2.64-8.05,2.29-11.82.54-2.05-.95-4.04-2.38-4.87-4.49-.87-2.2-.23-4.91,1.54-6.49,1.77-1.57,4.54-1.89,6.62-.77.83.45,1.56,1.11,2.48,1.37.28-2.73,1.34-13.48,2.38-23.17-21.03-12.12-28.64-17.09-33.29-47.42-4.87-31.72,30.28-74.44,62.12-75.01,32.4-.57,52.84,41.95,53.11,75.18.12,13.88-7.58,25.97-18.23,34.34Z"/>
      <g>
        <g>
          <circle class="cls-5" cx="279.36" cy="542.48" r="10.72"/>
          <circle class="cls-4" cx="280.74" cy="544.65" r="7.19"/>
        </g>
        <g>
          <circle class="cls-5" cx="244.43" cy="539.13" r="10.72"/>
          <circle class="cls-4" cx="242.58" cy="538.17" r="7.19"/>
        </g>
      </g>
      <path class="cls-2" d="M237.12,563.93c3.73,6.26,7.96,4.82,14.92,6.95,6.97,2.13,14.08-.65,21.31-1.51,3.54-.42,9.68.73,11.47-1.44"/>
    </g>
    <path class="cls-5" d="M224.89,531.87c-.32.89-.44,1.94.08,2.73.54.82,1.62,1.12,2.61,1.08.43-.01.89-.09,1.23-.35.58-.46.86-.99.97-1.73.27-1.77.08-5.49-.8-6.88-1.7,1.13-3.38,3.22-4.08,5.14Z"/>
    <path class="cls-5" d="M232.65,523.97c-.32.89-.44,1.94.08,2.73.54.82,1.62,1.12,2.61,1.08.43-.01.89-.09,1.23-.35.58-.46.86-.99.97-1.73.27-1.77.08-5.49-.8-6.88-1.7,1.13-3.38,3.22-4.08,5.14Z"/>
    <g>
      <path class="cls-4" d="M83.58,302.77h8.03v1.43c1.56-1.25,3.48-1.96,5.71-1.96,6.15,0,10.75,5.13,10.75,11.91s-4.59,11.91-10.75,11.91c-2.23,0-4.15-.71-5.71-1.96v9.9h-8.03v-31.22ZM99.82,314.15c0-2.36-1.74-4.15-4.1-4.15s-4.1,1.78-4.1,4.15,1.74,4.15,4.1,4.15,4.1-1.78,4.1-4.15Z"/>
      <path class="cls-4" d="M110.21,314.15c0-6.78,4.59-11.91,10.75-11.91,2.23,0,4.15.71,5.71,1.96v-1.43h8.03v22.75h-8.03v-1.43c-1.56,1.25-3.48,1.96-5.71,1.96-6.16,0-10.75-5.13-10.75-11.91ZM126.67,314.15c0-2.36-1.74-4.15-4.1-4.15s-4.1,1.78-4.1,4.15,1.74,4.15,4.1,4.15,4.1-1.78,4.1-4.15Z"/>
      <path class="cls-4" d="M139.15,302.77h8.03v1.7c1.69-1.47,3.75-2.23,6.15-2.23,5.04,0,8.39,3.3,8.39,8.34v14.94h-8.03v-12.22c0-2.01-1.21-3.3-3.08-3.3-2.05,0-3.43,1.34-3.43,3.39v12.13h-8.03v-22.75Z"/>
      <path class="cls-4" d="M165.15,295.99c0-2.76,2.1-4.82,4.86-4.82s4.86,2.05,4.86,4.82-2.1,4.82-4.86,4.82-4.86-2.05-4.86-4.82ZM166,302.77h8.03v22.75h-8.03v-22.75Z"/>
      <path class="cls-4" d="M177.29,314.15c0-6.78,5.31-11.91,12.35-11.91,6.33,0,11.28,4.15,11.95,9.9h-8.52c-.49-1.29-1.83-2.14-3.43-2.14-2.36,0-4.1,1.78-4.1,4.15s1.74,4.15,4.1,4.15c1.61,0,2.94-.85,3.43-2.14h8.52c-.67,5.75-5.62,9.9-11.95,9.9-7.05,0-12.35-5.13-12.35-11.91Z"/>
      <path class="cls-4" d="M203.87,320.92c0-2.9,2.23-5.13,5.17-5.13s5.17,2.23,5.17,5.13-2.23,5.13-5.17,5.13-5.17-2.23-5.17-5.13ZM204.8,302.33v-7.58h8.52v7.58l-.54,12.04h-7.45l-.54-12.04Z"/>
    </g>
  </g>
</svg>