<?xml version="1.0" encoding="UTF-8"?>
<svg id="Layer_1" data-name="Layer 1" xmlns="http://www.w3.org/2000/svg" viewBox="0 0 294.48 639.36">
  <defs>
    <style>
      .cls-1 {
        fill: #eeef9c;
      }

      .cls-2, .cls-3 {
        fill: #231f20;
      }

      .cls-4 {
        fill: #cfa9cf;
      }

      .cls-5 {
        fill: #719bd1;
      }

      .cls-6 {
        fill: #fff;
      }

      .cls-7 {
        stroke-width: 1.63px;
      }

      .cls-7, .cls-8, .cls-9, .cls-10 {
        fill: none;
        stroke: #231f20;
      }

      .cls-7, .cls-9, .cls-10 {
        stroke-linecap: round;
      }

      .cls-7, .cls-10 {
        stroke-linejoin: round;
      }

      .cls-11 {
        fill: #f4d44c;
      }

      .cls-8, .cls-9 {
        stroke-miterlimit: 10;
      }

      .cls-8, .cls-10 {
        stroke-width: 2px;
      }

      .cls-3 {
        font-family: NeulisSans-Black, 'Neulis Sans';
        font-size: 23.58px;
        font-weight: 800;
      }

      .cls-12 {
        letter-spacing: 0em;
      }

      .cls-13 {
        fill: #dce250;
      }

      .cls-9 {
        stroke-width: 12.13px;
      }

      .cls-14 {
        letter-spacing: 0em;
      }
    </style>
  </defs>
  <text class="cls-3" transform="translate(64.32 623.01)"><tspan x="0" y="0">d</tspan><tspan class="cls-12" x="14.74" y="0">r</tspan><tspan x="24.03" y="0">ess t</tspan><tspan class="cls-14" x="75.55" y="0">h</tspan><tspan x="89.81" y="0">e blob!</tspan></text>
  <g>
    <path class="cls-4" d="M165.59,515.07c.31,14.27.51,29.99.57,34,1.38-.26,2.53-1.14,3.81-1.69,3.2-1.38,7.22-.56,9.62,1.97,2.4,2.54,3,6.6,1.44,9.72-1.49,2.98-4.59,4.83-7.72,5.97-5.76,2.08-12.89,1.99-17.28-2.29-4.23-4.12-4.67-10.66-4.84-16.56-.04-1.56-.63-15.75-.9-29.18-.79.03-1.58.05-2.38.06-1.24.01-2.48,0-3.71-.05-.02,13.45-.34,27.68-.35,29.25-.06,5.9-.37,12.45-4.53,16.65-4.3,4.36-11.43,4.59-17.23,2.62-3.15-1.08-6.28-2.87-7.83-5.82-1.62-3.09-1.1-7.16,1.25-9.74,2.35-2.57,6.35-3.47,9.58-2.15,1.29.53,2.46,1.39,3.84,1.62-.01-4.04-.12-19.94-.09-34.3-38.65-8.3-75.63-38.85-76.02-80.04-.46-47.73,55.31-98.15,102.74-91.84,47.31,6.29,83.39,46.67,85.99,90.04,2.5,41.59-36.81,73.24-75.96,81.79Z"/>
    <g>
      <g>
        <circle class="cls-6" cx="121.21" cy="403.61" r="15.78"/>
        <circle class="cls-2" cx="124.25" cy="406.47" r="10.59"/>
      </g>
      <g>
        <circle class="cls-6" cx="172.88" cy="403.12" r="15.78"/>
        <circle class="cls-2" cx="175.92" cy="405.98" r="10.59"/>
      </g>
    </g>
    <path class="cls-9" d="M113.99,435.62c7.24,7.92,17.48,13.03,28.16,14.04s21.7-2.09,30.29-8.51c3.31-2.48,6.31-5.48,8.24-9.14"/>
  </g>
  <g id="Q9YZqs.tif">
    <path class="cls-13" d="M99.6,51.28c.29.39.96.17,1.37.14,8.46-.6,19.62-2.2,25.94,4.59.54.58,2.22,3.28,2.4,3.38,1.58.79,7.2-1.98,8.31,2.1,1.15,4.23-2.96,5.06-6.24,5.03,1.91,12.33-4.72,27.47-17.8,30.39-12.3,2.75-27.6-7.9-33.18-18.39-1.31-2.45-1.96-7.24-5.41-7.07-3.35.17-3.14,3.77-3.81,6.05-2.77,9.43-12.61,20.96-22.08,24.13-17.09,5.7-30.34-9.95-30.97-25.88-2.62.28-5.13.67-6.62-1.94l-.18-2.21c.73-3.94,6.54-2.23,7.94-3.24.17-.12,1.39-3.06,1.83-3.72,5.44-8.18,16.85-7.69,25.61-8.78l.58-.3,52.31-4.26ZM79.45,60.1l-10.86.88c.92,1.32,1.93,2.66,2.34,4.26,2.27-.76,4.4-1.07,6.77-.54.42-1.6.97-3.15,1.75-4.61Z"/>
  </g>
  <g id="MtZOu3.tif">
    <path class="cls-11" d="M179.16,95.49c-.68-.51-1.06-1.03-1.06-1.91-.01-2.47.83-5.56,1-8.12.33-4.81-1.35-12.3,1.89-16.31,2.04-2.52,4.58-1.41,7.19-.52,5.63,1.91,10.9,5.14,15.85,8.35.75-.24,1.36-.71,2.18-.93,1.82-.49,6.05.11,7.99.49,1.5.3,2.75,1.21,3.79,2.27,5.49-1.91,11.3-3.68,17.13-4.19,3.18-.28,6.19-.87,7.49,2.75,1.69,4.73-1.65,11.46-2.48,16.26-.3,1.72-.33,3.47-.52,5.18-.16,1.41-.32,3.64-1.95,4.02l-1.42-.18-4.81-1.45c-3.92-1.49-7.69-3.38-11.21-5.64-.54-.35-3.51-2.56-3.73-2.59-.11-.01-1.56.9-1.98,1.04-1.94.66-6.77.03-8.83-.47-1.52-.37-2.55-1.36-3.66-2.37-5.95,2.4-12.69,4.33-19.16,4.5-.73.02-1.55-.11-2.27.01l-1.42-.18Z"/>
  </g>
  <g>
    <g id="OGAThn">
      <path class="cls-5" d="M241.05,196.99c10.25-1.95,22.02-11.74,32.71-11.08,11.04.68,11.03,11.98,7.4,19.35-6.6,13.38-23.98,18.34-38.7,18.18-3.42-.04-9.1-1.24-12.07-.74-1.37.23-8.22,4.62-10.47,5.61-19.66,8.68-42.45,6.89-60.57-4.68-1.88-1.2-7.72-6.33-8.92-6.67-2.91-.84-7.81-.43-11.08-.87-14.8-1.99-30.86-8.38-36.32-22.57-4.12-10.71-.02-22.38,14-18.1,9.52,2.9,17.25,11.06,26.5,14.6,3.61-11.75,6.85-23.73,12.07-34.95,4.29-9.22,10.12-21.52,23.22-15.92,7.51,3.21,10.03,7.13,19.67,6.91,8.89-.2,16.32-8.24,25.04-3.72,8.06,4.18,11.77,22.28,13.5,30.33,1.72,8.05,2.8,16.22,4.02,24.34Z"/>
    </g>
    <path class="cls-13" d="M241.05,196.99c-.42-3.99-1.06-7.15-1.51-10.17-17.94,5.62-48.12,4.62-70.52.55-7.31-1.33-16.5-3.64-22.21-8.16-1.49,3.87-2.07,6.8-3.27,10.81,28.43,14.5,67.19,16.97,97.51,6.98Z"/>
    <path class="cls-1" d="M187.04,198.14l4.87-2.58c1.04-.55,2.31-.47,3.27.22l4.47,3.22c1.45,1.04,3.42-.26,3.03-2l-1.04-4.67c-.28-1.27.26-2.58,1.35-3.28l4.07-2.62c1.54-.99.98-3.37-.84-3.57l-5.26-.58c-1.22-.13-2.24-.97-2.61-2.14l-1.59-4.95c-.54-1.67-2.84-1.83-3.6-.25l-2.25,4.68c-.53,1.1-1.66,1.79-2.88,1.76l-5.28-.15c-1.83-.05-2.71,2.22-1.32,3.42l3.67,3.15c.99.85,1.34,2.22.89,3.43l-1.67,4.48c-.62,1.67,1.15,3.23,2.73,2.39Z"/>
  </g>
  <g>
    <g id="KecCkE">
      <path class="cls-11" d="M61.61,157.6c3.81-2.57,8.59-4.47,13.17-5.06,4.02-.52,10.42.23,11.31,5.11,1.12,6.15-6.25,9.04-11.06,9.89-3.68.65-7.69.71-11.35-.01,3.09,2.57,5.89,5.72,7.91,9.22,2.42,4.2,4.79,12.08-1.2,14.49-7.15,2.88-13.37-8.97-14.75-14.46l-.9-4.24c-.83,2.73-2.29,5.31-3.96,7.62-3.11,4.32-10.38,11.51-15.87,6.77-6.45-5.56,4.17-16.65,9.22-19.47l3.19-1.72c-.99.02-1.99-.08-2.98-.21-5.75-.78-18.86-5.3-17.25-13.06,1.11-5.36,7.21-5.27,11.37-4.11,4.81,1.34,9.44,4.56,12.94,8.03-.36-1.66-.78-3.29-.95-4.98-.54-5.41.28-18.2,7.92-18.21,8.29-.02,7.38,12.21,5.95,17.57-.63,2.37-1.63,4.66-2.7,6.85ZM55.43,161.09c-3.24.19-3.56,5.45.1,5.81,3.96.38,4.37-6.07-.1-5.81Z"/>
    </g>
    <circle class="cls-4" cx="55.74" cy="163.99" r="5.32"/>
  </g>
  <g>
    <circle class="cls-10" cx="19.47" cy="21.06" r="11.18"/>
    <g>
      <polyline class="cls-10" points="12.21 23.24 19.16 14.02 26.72 23.24"/>
      <line class="cls-10" x1="16.29" y1="22.42" x2="16.29" y2="27.46"/>
      <line class="cls-10" x1="22.65" y1="22.42" x2="22.65" y2="27.46"/>
    </g>
  </g>
  <circle class="cls-8" cx="275.01" cy="21.06" r="11.18"/>
  <g>
    <line class="cls-7" x1="266.89" y1="21.76" x2="276.77" y2="21.76"/>
    <polyline class="cls-7" points="277.18 15.58 283.13 21.53 278.12 26.55"/>
  </g>
</svg>