<?xml version="1.0" encoding="UTF-8"?>
<svg id="Layer_1" data-name="Layer 1" xmlns="http://www.w3.org/2000/svg" xmlns:xlink="http://www.w3.org/1999/xlink" viewBox="0 0 294.48 639.36">
  <defs>
    <style>
      .cls-1 {
        mask: url(#mask);
      }

      .cls-2 {
        fill: #7a9acd;
      }

      .cls-3 {
        mask: url(#mask-2);
      }

      .cls-4 {
        mask: url(#mask-3);
      }

      .cls-5 {
        mask: url(#mask-4);
      }

      .cls-6 {
        mask: url(#mask-5);
      }

      .cls-7 {
        mask: url(#mask-7);
      }

      .cls-8 {
        mask: url(#mask-6);
      }

      .cls-9 {
        mask: url(#mask-1);
      }

      .cls-10 {
        mask: url(#mask-8);
      }

      .cls-11, .cls-12 {
        fill: #221f20;
      }

      .cls-13 {
        fill: #fff;
      }

      .cls-14 {
        fill: none;
        stroke: #221f20;
        stroke-linecap: round;
        stroke-miterlimit: 10;
        stroke-width: 8.55px;
      }

      .cls-15 {
        letter-spacing: 0em;
      }

      .cls-16 {
        letter-spacing: 0em;
      }

      .cls-17 {
        fill: #dde268;
      }

      .cls-18 {
        letter-spacing: 0em;
      }

      .cls-12 {
        font-family: NeulisSans-Black, 'Neulis Sans';
        font-size: 23.58px;
        font-weight: 800;
      }
    </style>
    <mask id="mask" x="8.08" y="180.66" width="278.15" height="278.15" maskUnits="userSpaceOnUse">
      <rect class="cls-13" x="193.52" y="366.1" width="92.72" height="92.72"/>
    </mask>
    <mask id="mask-1" x="8.08" y="180.66" width="278.15" height="278.15" maskUnits="userSpaceOnUse">
      <rect class="cls-13" x="100.8" y="366.1" width="92.72" height="92.72"/>
    </mask>
    <mask id="mask-2" x="8.34" y="180.66" width="278.15" height="278.15" maskUnits="userSpaceOnUse">
      <rect class="cls-13" x="8.34" y="366.1" width="92.72" height="92.72"/>
    </mask>
    <mask id="mask-3" x="8.34" y="180.66" width="278.15" height="219.89" maskUnits="userSpaceOnUse">
      <rect class="cls-13" x="193.77" y="273.38" width="92.72" height="92.72"/>
    </mask>
    <mask id="mask-4" x="8.34" y="180.66" width="278.15" height="219.89" maskUnits="userSpaceOnUse">
      <rect class="cls-13" x="101.05" y="273.38" width="92.72" height="92.72"/>
    </mask>
    <mask id="mask-5" x="8.34" y="180.55" width="278.15" height="219.89" maskUnits="userSpaceOnUse">
      <rect class="cls-13" x="8.34" y="273.26" width="92.72" height="92.72"/>
    </mask>
    <mask id="mask-6" x="8.34" y="180.66" width="278.15" height="219.89" maskUnits="userSpaceOnUse">
      <rect class="cls-13" x="193.77" y="180.66" width="92.72" height="92.72"/>
    </mask>
    <mask id="mask-7" x="8.45" y="180.68" width="271.77" height="219.89" maskUnits="userSpaceOnUse">
      <rect class="cls-13" x="8.45" y="180.68" width="92.72" height="92.72"/>
    </mask>
    <mask id="mask-8" x="7.99" y="180.79" width="271.77" height="219.89" maskUnits="userSpaceOnUse">
      <rect class="cls-13" x="100.71" y="180.79" width="92.72" height="92.72"/>
    </mask>
  </defs>
  <text class="cls-12" transform="translate(29.54 623.01)"><tspan x="0" y="0">compl</tspan><tspan class="cls-15" x="70.46" y="0">e</tspan><tspan x="84.27" y="0">te t</tspan><tspan class="cls-18" x="121.95" y="0">h</tspan><tspan x="136.22" y="0">e pu</tspan><tspan class="cls-16" x="183.56" y="0">z</tspan><tspan x="195.61" y="0">zle!</tspan></text>
  <g>
    <rect class="cls-13" x="193.52" y="366.1" width="92.72" height="92.72"/>
    <g class="cls-1">
      <g>
        <g>
          <g>
            <path class="cls-17" d="M274.15,332.94c-5.03,8.7-12.67,15.73-21.1,21.09-4.34,2.76-8.95,5.1-13.73,7-1.66.66-3.34,1.26-5.04,1.81,1.85,1.7,3.38,3.76,4.43,6.04,2.42,5.27,2.15,11.61-.5,16.77.93-.2,1.71-.82,2.57-1.22,2.16-1,4.92-.5,6.6,1.18,1.68,1.69,2.16,4.45,1.14,6.61-.97,2.06-3.05,3.38-5.17,4.2-3.9,1.52-8.77,1.57-11.84-1.28-2.44-2.26-3.58-5.68-3.44-9.09.05-1.26.61-2.32.63-3.55.11-5.07-.65-8.8-2.45-13.26-.49-1.22-1.18-2.41-2.11-3.32h-.3c-2.3.08-4.61-.02-6.89.05-2.26.08-4.53.25-6.79.32-.91.98-1.54,2.27-1.97,3.56-1.5,4.57-2,8.34-1.54,13.39.11,1.22.74,2.25.87,3.5.37,3.39-.53,6.88-2.82,9.3-2.87,3.05-7.73,3.33-11.72,2.08-2.17-.68-4.34-1.85-5.44-3.84-1.16-2.08-.87-4.87.69-6.67,1.56-1.8,4.28-2.48,6.51-1.63.89.34,1.7.91,2.65,1.04-2.99-4.97-3.7-11.27-1.64-16.7.89-2.33,2.24-4.45,3.94-6.27-1.92-.47-3.83-1.06-5.7-1.68-4.84-1.63-9.53-3.74-13.94-6.31-8.66-5.04-16.41-11.9-21.81-20.39-4.59-7.22-7.31-15.53-7.6-24.09-1.11-32.58,33.61-75.99,66.1-72.47,32.4,3.5,58.15,34.98,62.74,68.08,1.24,8.96-.84,17.95-5.35,25.73Z"/>
            <g>
              <g>
                <circle class="cls-13" cx="232.87" cy="287.66" r="10.78"/>
                <circle class="cls-11" cx="230.76" cy="289.57" r="7.23"/>
              </g>
              <g>
                <circle class="cls-13" cx="197.6" cy="286.6" r="10.78"/>
                <circle class="cls-11" cx="195.48" cy="288.52" r="7.23"/>
              </g>
            </g>
            <path class="cls-14" d="M193.09,310.92c5.07,5.29,12.15,8.6,19.46,9.11,7.31.51,14.78-1.79,20.54-6.32,2.22-1.75,4.22-3.85,5.47-6.38"/>
          </g>
          <g>
            <path class="cls-2" d="M22.34,339.83c5.86,8.16,14.15,14.41,23.06,18.92,4.59,2.32,9.41,4.2,14.35,5.62,1.71.49,3.45.93,5.19,1.3-1.67,1.88-2.99,4.07-3.81,6.44-1.89,5.48-1,11.76,2.14,16.64-.95-.11-1.78-.65-2.68-.96-2.25-.78-4.95-.02-6.45,1.82-1.51,1.85-1.71,4.64-.49,6.69,1.17,1.96,3.37,3.06,5.56,3.68,4.03,1.13,8.88.7,11.65-2.43,2.21-2.49,3.01-6.01,2.53-9.38-.17-1.25-.83-2.25-.98-3.47-.61-5.03-.21-8.82,1.14-13.43.37-1.26.94-2.52,1.78-3.51l.3-.02c2.3-.15,4.58-.49,6.86-.63,2.26-.14,4.53-.19,6.79-.34,1.01.88,1.76,2.1,2.31,3.35,1.94,4.4,2.81,8.11,2.85,13.18,0,1.23-.52,2.31-.53,3.57-.03,3.41,1.2,6.79,3.71,8.98,3.15,2.75,8.02,2.55,11.87.92,2.09-.89,4.13-2.27,5.04-4.36.95-2.19.39-4.93-1.34-6.57-1.73-1.64-4.5-2.05-6.64-.98-.85.43-1.61,1.07-2.54,1.3,2.49-5.24,2.57-11.58,0-16.78-1.11-2.23-2.67-4.21-4.54-5.85,1.87-.66,3.7-1.43,5.5-2.23,4.66-2.09,9.11-4.65,13.26-7.64,8.13-5.87,15.16-13.45,19.7-22.43,3.86-7.63,5.75-16.17,5.2-24.72-2.09-32.53-40.89-72.32-72.89-65.64-31.9,6.66-54.44,40.51-55.76,73.9-.36,9.03,2.6,17.78,7.85,25.08Z"/>
            <g>
              <g>
                <circle class="cls-13" cx="58.98" cy="290.72" r="10.78"/>
                <circle class="cls-11" cx="61.28" cy="292.42" r="7.23"/>
              </g>
              <g>
                <circle class="cls-13" cx="93.98" cy="286.21" r="10.78"/>
                <circle class="cls-11" cx="96.28" cy="287.91" r="7.23"/>
              </g>
            </g>
            <path class="cls-14" d="M100.86,309.97c-4.53,5.76-11.25,9.75-18.48,10.98-7.23,1.23-14.89-.33-21.06-4.27-2.38-1.52-4.58-3.42-6.07-5.81"/>
          </g>
        </g>
        <rect class="cls-13" x="8.08" y="180.66" width="92.72" height="92.72"/>
        <rect class="cls-13" x="100.8" y="180.66" width="92.72" height="92.72"/>
        <rect class="cls-13" x="193.52" y="180.66" width="92.72" height="92.72"/>
        <rect class="cls-13" x="8.08" y="273.38" width="92.72" height="92.72"/>
        <rect class="cls-13" x="100.8" y="273.38" width="92.72" height="92.72"/>
        <rect class="cls-13" x="193.52" y="273.38" width="92.72" height="92.72"/>
        <rect class="cls-13" x="8.08" y="366.1" width="92.72" height="92.72"/>
        <rect class="cls-13" x="100.8" y="366.1" width="92.72" height="92.72"/>
      </g>
    </g>
  </g>
  <g>
    <rect class="cls-13" x="100.8" y="366.1" width="92.72" height="92.72"/>
    <g class="cls-9">
      <g>
        <g>
          <g>
            <path class="cls-17" d="M274.15,332.94c-5.03,8.7-12.67,15.73-21.1,21.09-4.34,2.76-8.95,5.1-13.73,7-1.66.66-3.34,1.26-5.04,1.81,1.85,1.7,3.38,3.76,4.43,6.04,2.42,5.27,2.15,11.61-.5,16.77.93-.2,1.71-.82,2.57-1.22,2.16-1,4.92-.5,6.6,1.18,1.68,1.69,2.16,4.45,1.14,6.61-.97,2.06-3.05,3.38-5.17,4.2-3.9,1.52-8.77,1.57-11.84-1.28-2.44-2.26-3.58-5.68-3.44-9.09.05-1.26.61-2.32.63-3.55.11-5.07-.65-8.8-2.45-13.26-.49-1.22-1.18-2.41-2.11-3.32h-.3c-2.3.08-4.61-.02-6.89.05-2.26.08-4.53.25-6.79.32-.91.98-1.54,2.27-1.97,3.56-1.5,4.57-2,8.34-1.54,13.39.11,1.22.74,2.25.87,3.5.37,3.39-.53,6.88-2.82,9.3-2.87,3.05-7.73,3.33-11.72,2.08-2.17-.68-4.34-1.85-5.44-3.84-1.16-2.08-.87-4.87.69-6.67,1.56-1.8,4.28-2.48,6.51-1.63.89.34,1.7.91,2.65,1.04-2.99-4.97-3.7-11.27-1.64-16.7.89-2.33,2.24-4.45,3.94-6.27-1.92-.47-3.83-1.06-5.7-1.68-4.84-1.63-9.53-3.74-13.94-6.31-8.66-5.04-16.41-11.9-21.81-20.39-4.59-7.22-7.31-15.53-7.6-24.09-1.11-32.58,33.61-75.99,66.1-72.47,32.4,3.5,58.15,34.98,62.74,68.08,1.24,8.96-.84,17.95-5.35,25.73Z"/>
            <g>
              <g>
                <circle class="cls-13" cx="232.87" cy="287.66" r="10.78"/>
                <circle class="cls-11" cx="230.76" cy="289.57" r="7.23"/>
              </g>
              <g>
                <circle class="cls-13" cx="197.6" cy="286.6" r="10.78"/>
                <circle class="cls-11" cx="195.48" cy="288.52" r="7.23"/>
              </g>
            </g>
            <path class="cls-14" d="M193.09,310.92c5.07,5.29,12.15,8.6,19.46,9.11,7.31.51,14.78-1.79,20.54-6.32,2.22-1.75,4.22-3.85,5.47-6.38"/>
          </g>
          <g>
            <path class="cls-2" d="M22.34,339.83c5.86,8.16,14.15,14.41,23.06,18.92,4.59,2.32,9.41,4.2,14.35,5.62,1.71.49,3.45.93,5.19,1.3-1.67,1.88-2.99,4.07-3.81,6.44-1.89,5.48-1,11.76,2.14,16.64-.95-.11-1.78-.65-2.68-.96-2.25-.78-4.95-.02-6.45,1.82-1.51,1.85-1.71,4.64-.49,6.69,1.17,1.96,3.37,3.06,5.56,3.68,4.03,1.13,8.88.7,11.65-2.43,2.21-2.49,3.01-6.01,2.53-9.38-.17-1.25-.83-2.25-.98-3.47-.61-5.03-.21-8.82,1.14-13.43.37-1.26.94-2.52,1.78-3.51l.3-.02c2.3-.15,4.58-.49,6.86-.63,2.26-.14,4.53-.19,6.79-.34,1.01.88,1.76,2.1,2.31,3.35,1.94,4.4,2.81,8.11,2.85,13.18,0,1.23-.52,2.31-.53,3.57-.03,3.41,1.2,6.79,3.71,8.98,3.15,2.75,8.02,2.55,11.87.92,2.09-.89,4.13-2.27,5.04-4.36.95-2.19.39-4.93-1.34-6.57-1.73-1.64-4.5-2.05-6.64-.98-.85.43-1.61,1.07-2.54,1.3,2.49-5.24,2.57-11.58,0-16.78-1.11-2.23-2.67-4.21-4.54-5.85,1.87-.66,3.7-1.43,5.5-2.23,4.66-2.09,9.11-4.65,13.26-7.64,8.13-5.87,15.16-13.45,19.7-22.43,3.86-7.63,5.75-16.17,5.2-24.72-2.09-32.53-40.89-72.32-72.89-65.64-31.9,6.66-54.44,40.51-55.76,73.9-.36,9.03,2.6,17.78,7.85,25.08Z"/>
            <g>
              <g>
                <circle class="cls-13" cx="58.98" cy="290.72" r="10.78"/>
                <circle class="cls-11" cx="61.28" cy="292.42" r="7.23"/>
              </g>
              <g>
                <circle class="cls-13" cx="93.98" cy="286.21" r="10.78"/>
                <circle class="cls-11" cx="96.28" cy="287.91" r="7.23"/>
              </g>
            </g>
            <path class="cls-14" d="M100.86,309.97c-4.53,5.76-11.25,9.75-18.48,10.98-7.23,1.23-14.89-.33-21.06-4.27-2.38-1.52-4.58-3.42-6.07-5.81"/>
          </g>
        </g>
        <rect class="cls-13" x="8.08" y="180.66" width="92.72" height="92.72"/>
        <rect class="cls-13" x="100.8" y="180.66" width="92.72" height="92.72"/>
        <rect class="cls-13" x="193.52" y="180.66" width="92.72" height="92.72"/>
        <rect class="cls-13" x="8.08" y="273.38" width="92.72" height="92.72"/>
        <rect class="cls-13" x="100.8" y="273.38" width="92.72" height="92.72"/>
        <rect class="cls-13" x="193.52" y="273.38" width="92.72" height="92.72"/>
        <rect class="cls-13" x="8.08" y="366.1" width="92.72" height="92.72"/>
      </g>
    </g>
  </g>
  <g>
    <rect class="cls-13" x="8.34" y="366.1" width="92.72" height="92.72"/>
    <g class="cls-3">
      <g>
        <g>
          <g>
            <path class="cls-17" d="M274.4,332.94c-5.03,8.7-12.67,15.73-21.1,21.09-4.34,2.76-8.95,5.1-13.73,7-1.66.66-3.34,1.26-5.04,1.81,1.85,1.7,3.38,3.76,4.43,6.04,2.42,5.27,2.15,11.61-.5,16.77.93-.2,1.71-.82,2.57-1.22,2.16-1,4.92-.5,6.6,1.18,1.68,1.69,2.16,4.45,1.14,6.61-.97,2.06-3.05,3.38-5.17,4.2-3.9,1.52-8.77,1.57-11.84-1.28-2.44-2.26-3.58-5.68-3.44-9.09.05-1.26.61-2.32.63-3.55.11-5.07-.65-8.8-2.45-13.26-.49-1.22-1.18-2.41-2.11-3.32h-.3c-2.3.08-4.61-.02-6.89.05-2.26.08-4.53.25-6.79.32-.91.98-1.54,2.27-1.97,3.56-1.5,4.57-2,8.34-1.54,13.39.11,1.22.74,2.25.87,3.5.37,3.39-.53,6.88-2.82,9.3-2.87,3.05-7.73,3.33-11.72,2.08-2.17-.68-4.34-1.85-5.44-3.84-1.16-2.08-.87-4.87.69-6.67,1.56-1.8,4.28-2.48,6.51-1.63.89.34,1.7.91,2.65,1.04-2.99-4.97-3.7-11.27-1.64-16.7.89-2.33,2.24-4.45,3.94-6.27-1.92-.47-3.83-1.06-5.7-1.68-4.84-1.63-9.53-3.74-13.94-6.31-8.66-5.04-16.41-11.9-21.81-20.39-4.59-7.22-7.31-15.53-7.6-24.09-1.11-32.58,33.61-75.99,66.1-72.47,32.4,3.5,58.15,34.98,62.74,68.08,1.24,8.96-.84,17.95-5.35,25.73Z"/>
            <g>
              <g>
                <circle class="cls-13" cx="233.13" cy="287.66" r="10.78"/>
                <circle class="cls-11" cx="231.01" cy="289.57" r="7.23"/>
              </g>
              <g>
                <circle class="cls-13" cx="197.85" cy="286.6" r="10.78"/>
                <circle class="cls-11" cx="195.73" cy="288.52" r="7.23"/>
              </g>
            </g>
            <path class="cls-14" d="M193.34,310.92c5.07,5.29,12.15,8.6,19.46,9.11,7.31.51,14.78-1.79,20.54-6.32,2.22-1.75,4.22-3.85,5.47-6.38"/>
          </g>
          <g>
            <path class="cls-2" d="M22.59,339.83c5.86,8.16,14.15,14.41,23.06,18.92,4.59,2.32,9.41,4.2,14.35,5.62,1.71.49,3.45.93,5.19,1.3-1.67,1.88-2.99,4.07-3.81,6.44-1.89,5.48-1,11.76,2.14,16.64-.95-.11-1.78-.65-2.68-.96-2.25-.78-4.95-.02-6.45,1.82-1.51,1.85-1.71,4.64-.49,6.69,1.17,1.96,3.37,3.06,5.56,3.68,4.03,1.13,8.88.7,11.65-2.43,2.21-2.49,3.01-6.01,2.53-9.38-.17-1.25-.83-2.25-.98-3.47-.61-5.03-.21-8.82,1.14-13.43.37-1.26.94-2.52,1.78-3.51l.3-.02c2.3-.15,4.58-.49,6.86-.63,2.26-.14,4.53-.19,6.79-.34,1.01.88,1.76,2.1,2.31,3.35,1.94,4.4,2.81,8.11,2.85,13.18,0,1.23-.52,2.31-.53,3.57-.03,3.41,1.2,6.79,3.71,8.98,3.15,2.75,8.02,2.55,11.87.92,2.09-.89,4.13-2.27,5.04-4.36.95-2.19.39-4.93-1.34-6.57-1.73-1.64-4.5-2.05-6.64-.98-.85.43-1.61,1.07-2.54,1.3,2.49-5.24,2.57-11.58,0-16.78-1.11-2.23-2.67-4.21-4.54-5.85,1.87-.66,3.7-1.43,5.5-2.23,4.66-2.09,9.11-4.65,13.26-7.64,8.13-5.87,15.16-13.45,19.7-22.43,3.86-7.63,5.75-16.17,5.2-24.72-2.09-32.53-40.89-72.32-72.89-65.64-31.9,6.66-54.44,40.51-55.76,73.9-.36,9.03,2.6,17.78,7.85,25.08Z"/>
            <g>
              <g>
                <circle class="cls-13" cx="59.23" cy="290.72" r="10.78"/>
                <circle class="cls-11" cx="61.53" cy="292.42" r="7.23"/>
              </g>
              <g>
                <circle class="cls-13" cx="94.24" cy="286.21" r="10.78"/>
                <circle class="cls-11" cx="96.53" cy="287.91" r="7.23"/>
              </g>
            </g>
            <path class="cls-14" d="M101.11,309.97c-4.53,5.76-11.25,9.75-18.48,10.98-7.23,1.23-14.89-.33-21.06-4.27-2.38-1.52-4.58-3.42-6.07-5.81"/>
          </g>
        </g>
        <rect class="cls-13" x="8.34" y="180.66" width="92.72" height="92.72"/>
        <rect class="cls-13" x="101.05" y="180.66" width="92.72" height="92.72"/>
        <rect class="cls-13" x="193.77" y="180.66" width="92.72" height="92.72"/>
        <rect class="cls-13" x="8.34" y="273.38" width="92.72" height="92.72"/>
        <rect class="cls-13" x="101.05" y="273.38" width="92.72" height="92.72"/>
        <rect class="cls-13" x="193.77" y="273.38" width="92.72" height="92.72"/>
      </g>
    </g>
  </g>
  <g>
    <rect class="cls-13" x="193.77" y="273.38" width="92.72" height="92.72"/>
    <g class="cls-4">
      <g>
        <g>
          <g>
            <path class="cls-17" d="M274.4,332.94c-5.03,8.7-12.67,15.73-21.1,21.09-4.34,2.76-8.95,5.1-13.73,7-1.66.66-3.34,1.26-5.04,1.81,1.85,1.7,3.38,3.76,4.43,6.04,2.42,5.27,2.15,11.61-.5,16.77.93-.2,1.71-.82,2.57-1.22,2.16-1,4.92-.5,6.6,1.18,1.68,1.69,2.16,4.45,1.14,6.61-.97,2.06-3.05,3.38-5.17,4.2-3.9,1.52-8.77,1.57-11.84-1.28-2.44-2.26-3.58-5.68-3.44-9.09.05-1.26.61-2.32.63-3.55.11-5.07-.65-8.8-2.45-13.26-.49-1.22-1.18-2.41-2.11-3.32h-.3c-2.3.08-4.61-.02-6.89.05-2.26.08-4.53.25-6.79.32-.91.98-1.54,2.27-1.97,3.56-1.5,4.57-2,8.34-1.54,13.39.11,1.22.74,2.25.87,3.5.37,3.39-.53,6.88-2.82,9.3-2.87,3.05-7.73,3.33-11.72,2.08-2.17-.68-4.34-1.85-5.44-3.84-1.16-2.08-.87-4.87.69-6.67,1.56-1.8,4.28-2.48,6.51-1.63.89.34,1.7.91,2.65,1.04-2.99-4.97-3.7-11.27-1.64-16.7.89-2.33,2.24-4.45,3.94-6.27-1.92-.47-3.83-1.06-5.7-1.68-4.84-1.63-9.53-3.74-13.94-6.31-8.66-5.04-16.41-11.9-21.81-20.39-4.59-7.22-7.31-15.53-7.6-24.09-1.11-32.58,33.61-75.99,66.1-72.47,32.4,3.5,58.15,34.98,62.74,68.08,1.24,8.96-.84,17.95-5.35,25.73Z"/>
            <g>
              <g>
                <circle class="cls-13" cx="233.13" cy="287.66" r="10.78"/>
                <circle class="cls-11" cx="231.01" cy="289.57" r="7.23"/>
              </g>
              <g>
                <circle class="cls-13" cx="197.85" cy="286.6" r="10.78"/>
                <circle class="cls-11" cx="195.73" cy="288.52" r="7.23"/>
              </g>
            </g>
            <path class="cls-14" d="M193.34,310.92c5.07,5.29,12.15,8.6,19.46,9.11,7.31.51,14.78-1.79,20.54-6.32,2.22-1.75,4.22-3.85,5.47-6.38"/>
          </g>
          <g>
            <path class="cls-2" d="M22.59,339.83c5.86,8.16,14.15,14.41,23.06,18.92,4.59,2.32,9.41,4.2,14.35,5.62,1.71.49,3.45.93,5.19,1.3-1.67,1.88-2.99,4.07-3.81,6.44-1.89,5.48-1,11.76,2.14,16.64-.95-.11-1.78-.65-2.68-.96-2.25-.78-4.95-.02-6.45,1.82-1.51,1.85-1.71,4.64-.49,6.69,1.17,1.96,3.37,3.06,5.56,3.68,4.03,1.13,8.88.7,11.65-2.43,2.21-2.49,3.01-6.01,2.53-9.38-.17-1.25-.83-2.25-.98-3.47-.61-5.03-.21-8.82,1.14-13.43.37-1.26.94-2.52,1.78-3.51l.3-.02c2.3-.15,4.58-.49,6.86-.63,2.26-.14,4.53-.19,6.79-.34,1.01.88,1.76,2.1,2.31,3.35,1.94,4.4,2.81,8.11,2.85,13.18,0,1.23-.52,2.31-.53,3.57-.03,3.41,1.2,6.79,3.71,8.98,3.15,2.75,8.02,2.55,11.87.92,2.09-.89,4.13-2.27,5.04-4.36.95-2.19.39-4.93-1.34-6.57-1.73-1.64-4.5-2.05-6.64-.98-.85.43-1.61,1.07-2.54,1.3,2.49-5.24,2.57-11.58,0-16.78-1.11-2.23-2.67-4.21-4.54-5.85,1.87-.66,3.7-1.43,5.5-2.23,4.66-2.09,9.11-4.65,13.26-7.64,8.13-5.87,15.16-13.45,19.7-22.43,3.86-7.63,5.75-16.17,5.2-24.72-2.09-32.53-40.89-72.32-72.89-65.64-31.9,6.66-54.44,40.51-55.76,73.9-.36,9.03,2.6,17.78,7.85,25.08Z"/>
            <g>
              <g>
                <circle class="cls-13" cx="59.23" cy="290.72" r="10.78"/>
                <circle class="cls-11" cx="61.53" cy="292.42" r="7.23"/>
              </g>
              <g>
                <circle class="cls-13" cx="94.24" cy="286.21" r="10.78"/>
                <circle class="cls-11" cx="96.53" cy="287.91" r="7.23"/>
              </g>
            </g>
            <path class="cls-14" d="M101.11,309.97c-4.53,5.76-11.25,9.75-18.48,10.98-7.23,1.23-14.89-.33-21.06-4.27-2.38-1.52-4.58-3.42-6.07-5.81"/>
          </g>
        </g>
        <rect class="cls-13" x="8.34" y="180.66" width="92.72" height="92.72"/>
        <rect class="cls-13" x="101.05" y="180.66" width="92.72" height="92.72"/>
        <rect class="cls-13" x="193.77" y="180.66" width="92.72" height="92.72"/>
        <rect class="cls-13" x="8.34" y="273.38" width="92.72" height="92.72"/>
        <rect class="cls-13" x="101.05" y="273.38" width="92.72" height="92.72"/>
      </g>
    </g>
  </g>
  <g>
    <rect class="cls-13" x="101.05" y="273.44" width="92.72" height="92.72"/>
    <g class="cls-5">
      <g>
        <g>
          <path class="cls-17" d="M274.4,332.94c-5.03,8.7-12.67,15.73-21.1,21.09-4.34,2.76-8.95,5.1-13.73,7-1.66.66-3.34,1.26-5.04,1.81,1.85,1.7,3.38,3.76,4.43,6.04,2.42,5.27,2.15,11.61-.5,16.77.93-.2,1.71-.82,2.57-1.22,2.16-1,4.92-.5,6.6,1.18,1.68,1.69,2.16,4.45,1.14,6.61-.97,2.06-3.05,3.38-5.17,4.2-3.9,1.52-8.77,1.57-11.84-1.28-2.44-2.26-3.58-5.68-3.44-9.09.05-1.26.61-2.32.63-3.55.11-5.07-.65-8.8-2.45-13.26-.49-1.22-1.18-2.41-2.11-3.32h-.3c-2.3.08-4.61-.02-6.89.05-2.26.08-4.53.25-6.79.32-.91.98-1.54,2.27-1.97,3.56-1.5,4.57-2,8.34-1.54,13.39.11,1.22.74,2.25.87,3.5.37,3.39-.53,6.88-2.82,9.3-2.87,3.05-7.73,3.33-11.72,2.08-2.17-.68-4.34-1.85-5.44-3.84-1.16-2.08-.87-4.87.69-6.67,1.56-1.8,4.28-2.48,6.51-1.63.89.34,1.7.91,2.65,1.04-2.99-4.97-3.7-11.27-1.64-16.7.89-2.33,2.24-4.45,3.94-6.27-1.92-.47-3.83-1.06-5.7-1.68-4.84-1.63-9.53-3.74-13.94-6.31-8.66-5.04-16.41-11.9-21.81-20.39-4.59-7.22-7.31-15.53-7.6-24.09-1.11-32.58,33.61-75.99,66.1-72.47,32.4,3.5,58.15,34.98,62.74,68.08,1.24,8.96-.84,17.95-5.35,25.73Z"/>
          <g>
            <g>
              <circle class="cls-13" cx="233.13" cy="287.66" r="10.78"/>
              <circle class="cls-11" cx="231.01" cy="289.57" r="7.23"/>
            </g>
            <g>
              <circle class="cls-13" cx="197.85" cy="286.6" r="10.78"/>
              <circle class="cls-11" cx="195.73" cy="288.52" r="7.23"/>
            </g>
          </g>
          <path class="cls-14" d="M193.34,310.92c5.07,5.29,12.15,8.6,19.46,9.11,7.31.51,14.78-1.79,20.54-6.32,2.22-1.75,4.22-3.85,5.47-6.38"/>
        </g>
        <g>
          <path class="cls-2" d="M22.59,339.83c5.86,8.16,14.15,14.41,23.06,18.92,4.59,2.32,9.41,4.2,14.35,5.62,1.71.49,3.45.93,5.19,1.3-1.67,1.88-2.99,4.07-3.81,6.44-1.89,5.48-1,11.76,2.14,16.64-.95-.11-1.78-.65-2.68-.96-2.25-.78-4.95-.02-6.45,1.82-1.51,1.85-1.71,4.64-.49,6.69,1.17,1.96,3.37,3.06,5.56,3.68,4.03,1.13,8.88.7,11.65-2.43,2.21-2.49,3.01-6.01,2.53-9.38-.17-1.25-.83-2.25-.98-3.47-.61-5.03-.21-8.82,1.14-13.43.37-1.26.94-2.52,1.78-3.51l.3-.02c2.3-.15,4.58-.49,6.86-.63,2.26-.14,4.53-.19,6.79-.34,1.01.88,1.76,2.1,2.31,3.35,1.94,4.4,2.81,8.11,2.85,13.18,0,1.23-.52,2.31-.53,3.57-.03,3.41,1.2,6.79,3.71,8.98,3.15,2.75,8.02,2.55,11.87.92,2.09-.89,4.13-2.27,5.04-4.36.95-2.19.39-4.93-1.34-6.57-1.73-1.64-4.5-2.05-6.64-.98-.85.43-1.61,1.07-2.54,1.3,2.49-5.24,2.57-11.58,0-16.78-1.11-2.23-2.67-4.21-4.54-5.85,1.87-.66,3.7-1.43,5.5-2.23,4.66-2.09,9.11-4.65,13.26-7.64,8.13-5.87,15.16-13.45,19.7-22.43,3.86-7.63,5.75-16.17,5.2-24.72-2.09-32.53-40.89-72.32-72.89-65.64-31.9,6.66-54.44,40.51-55.76,73.9-.36,9.03,2.6,17.78,7.85,25.08Z"/>
          <g>
            <g>
              <circle class="cls-13" cx="59.23" cy="290.72" r="10.78"/>
              <circle class="cls-11" cx="61.53" cy="292.42" r="7.23"/>
            </g>
            <g>
              <circle class="cls-13" cx="94.24" cy="286.21" r="10.78"/>
              <circle class="cls-11" cx="96.53" cy="287.91" r="7.23"/>
            </g>
          </g>
          <path class="cls-14" d="M101.11,309.97c-4.53,5.76-11.25,9.75-18.48,10.98-7.23,1.23-14.89-.33-21.06-4.27-2.38-1.52-4.58-3.42-6.07-5.81"/>
        </g>
        <rect class="cls-13" x="8.34" y="180.66" width="92.72" height="92.72"/>
        <rect class="cls-13" x="101.05" y="180.66" width="92.72" height="92.72"/>
        <rect class="cls-13" x="193.77" y="180.66" width="92.72" height="92.72"/>
        <rect class="cls-13" x="8.34" y="273.38" width="92.72" height="92.72"/>
      </g>
    </g>
  </g>
  <g>
    <rect class="cls-13" x="8.34" y="273.4" width="92.72" height="92.72"/>
    <g class="cls-6">
      <g>
        <g>
          <g>
            <path class="cls-17" d="M274.4,332.82c-5.03,8.7-12.67,15.73-21.1,21.09-4.34,2.76-8.95,5.1-13.73,7-1.66.66-3.34,1.26-5.04,1.81,1.85,1.7,3.38,3.76,4.43,6.04,2.42,5.27,2.15,11.61-.5,16.77.93-.2,1.71-.82,2.57-1.22,2.16-1,4.92-.5,6.6,1.18,1.68,1.69,2.16,4.45,1.14,6.61-.97,2.06-3.05,3.38-5.17,4.2-3.9,1.52-8.77,1.57-11.84-1.28-2.44-2.26-3.58-5.68-3.44-9.09.05-1.26.61-2.32.63-3.55.11-5.07-.65-8.8-2.45-13.26-.49-1.22-1.18-2.41-2.11-3.32h-.3c-2.3.08-4.61-.02-6.89.05-2.26.08-4.53.25-6.79.32-.91.98-1.54,2.27-1.97,3.56-1.5,4.57-2,8.34-1.54,13.39.11,1.22.74,2.25.87,3.5.37,3.39-.53,6.88-2.82,9.3-2.87,3.05-7.73,3.33-11.72,2.08-2.17-.68-4.34-1.85-5.44-3.84-1.16-2.08-.87-4.87.69-6.67,1.56-1.8,4.28-2.48,6.51-1.63.89.34,1.7.91,2.65,1.04-2.99-4.97-3.7-11.27-1.64-16.7.89-2.33,2.24-4.45,3.94-6.27-1.92-.47-3.83-1.06-5.7-1.68-4.84-1.63-9.53-3.74-13.94-6.31-8.66-5.04-16.41-11.9-21.81-20.39-4.59-7.22-7.31-15.53-7.6-24.09-1.11-32.58,33.61-75.99,66.1-72.47,32.4,3.5,58.15,34.98,62.74,68.08,1.24,8.96-.84,17.95-5.35,25.73Z"/>
            <g>
              <g>
                <circle class="cls-13" cx="233.13" cy="287.54" r="10.78"/>
                <circle class="cls-11" cx="231.01" cy="289.46" r="7.23"/>
              </g>
              <g>
                <circle class="cls-13" cx="197.85" cy="286.49" r="10.78"/>
                <circle class="cls-11" cx="195.73" cy="288.4" r="7.23"/>
              </g>
            </g>
            <path class="cls-14" d="M193.34,310.8c5.07,5.29,12.15,8.6,19.46,9.11,7.31.51,14.78-1.79,20.54-6.32,2.22-1.75,4.22-3.85,5.47-6.38"/>
          </g>
          <g>
            <path class="cls-2" d="M22.59,339.71c5.86,8.16,14.15,14.41,23.06,18.92,4.59,2.32,9.41,4.2,14.35,5.62,1.71.49,3.45.93,5.19,1.3-1.67,1.88-2.99,4.07-3.81,6.44-1.89,5.48-1,11.76,2.14,16.64-.95-.11-1.78-.65-2.68-.96-2.25-.78-4.95-.02-6.45,1.82-1.51,1.85-1.71,4.64-.49,6.69,1.17,1.96,3.37,3.06,5.56,3.68,4.03,1.13,8.88.7,11.65-2.43,2.21-2.49,3.01-6.01,2.53-9.38-.17-1.25-.83-2.25-.98-3.47-.61-5.03-.21-8.82,1.14-13.43.37-1.26.94-2.52,1.78-3.51l.3-.02c2.3-.15,4.58-.49,6.86-.63,2.26-.14,4.53-.19,6.79-.34,1.01.88,1.76,2.1,2.31,3.35,1.94,4.4,2.81,8.11,2.85,13.18,0,1.23-.52,2.31-.53,3.57-.03,3.41,1.2,6.79,3.71,8.98,3.15,2.75,8.02,2.55,11.87.92,2.09-.89,4.13-2.27,5.04-4.36.95-2.19.39-4.93-1.34-6.57-1.73-1.64-4.5-2.05-6.64-.98-.85.43-1.61,1.07-2.54,1.3,2.49-5.24,2.57-11.58,0-16.78-1.11-2.23-2.67-4.21-4.54-5.85,1.87-.66,3.7-1.43,5.5-2.23,4.66-2.09,9.11-4.65,13.26-7.64,8.13-5.87,15.16-13.45,19.7-22.43,3.86-7.63,5.75-16.17,5.2-24.72-2.09-32.53-40.89-72.32-72.89-65.64-31.9,6.66-54.44,40.51-55.76,73.9-.36,9.03,2.6,17.78,7.85,25.08Z"/>
            <g>
              <g>
                <circle class="cls-13" cx="59.23" cy="290.6" r="10.78"/>
                <circle class="cls-11" cx="61.53" cy="292.3" r="7.23"/>
              </g>
              <g>
                <circle class="cls-13" cx="94.24" cy="286.1" r="10.78"/>
                <circle class="cls-11" cx="96.53" cy="287.8" r="7.23"/>
              </g>
            </g>
            <path class="cls-14" d="M101.11,309.85c-4.53,5.76-11.25,9.75-18.48,10.98-7.23,1.23-14.89-.33-21.06-4.27-2.38-1.52-4.58-3.42-6.07-5.81"/>
          </g>
        </g>
        <rect class="cls-13" x="8.34" y="180.55" width="92.72" height="92.72"/>
        <rect class="cls-13" x="101.05" y="180.55" width="92.72" height="92.72"/>
        <rect class="cls-13" x="193.77" y="180.55" width="92.72" height="92.72"/>
      </g>
    </g>
  </g>
  <g>
    <rect class="cls-13" x="193.77" y="180.66" width="92.72" height="92.72"/>
    <g class="cls-8">
      <g>
        <g>
          <g>
            <path class="cls-17" d="M274.4,332.94c-5.03,8.7-12.67,15.73-21.1,21.09-4.34,2.76-8.95,5.1-13.73,7-1.66.66-3.34,1.26-5.04,1.81,1.85,1.7,3.38,3.76,4.43,6.04,2.42,5.27,2.15,11.61-.5,16.77.93-.2,1.71-.82,2.57-1.22,2.16-1,4.92-.5,6.6,1.18,1.68,1.69,2.16,4.45,1.14,6.61-.97,2.06-3.05,3.38-5.17,4.2-3.9,1.52-8.77,1.57-11.84-1.28-2.44-2.26-3.58-5.68-3.44-9.09.05-1.26.61-2.32.63-3.55.11-5.07-.65-8.8-2.45-13.26-.49-1.22-1.18-2.41-2.11-3.32h-.3c-2.3.08-4.61-.02-6.89.05-2.26.08-4.53.25-6.79.32-.91.98-1.54,2.27-1.97,3.56-1.5,4.57-2,8.34-1.54,13.39.11,1.22.74,2.25.87,3.5.37,3.39-.53,6.88-2.82,9.3-2.87,3.05-7.73,3.33-11.72,2.08-2.17-.68-4.34-1.85-5.44-3.84-1.16-2.08-.87-4.87.69-6.67,1.56-1.8,4.28-2.48,6.51-1.63.89.34,1.7.91,2.65,1.04-2.99-4.97-3.7-11.27-1.64-16.7.89-2.33,2.24-4.45,3.94-6.27-1.92-.47-3.83-1.06-5.7-1.68-4.84-1.63-9.53-3.74-13.94-6.31-8.66-5.04-16.41-11.9-21.81-20.39-4.59-7.22-7.31-15.53-7.6-24.09-1.11-32.58,33.61-75.99,66.1-72.47,32.4,3.5,58.15,34.98,62.74,68.08,1.24,8.96-.84,17.95-5.35,25.73Z"/>
            <g>
              <g>
                <circle class="cls-13" cx="233.13" cy="287.66" r="10.78"/>
                <circle class="cls-11" cx="231.01" cy="289.57" r="7.23"/>
              </g>
              <g>
                <circle class="cls-13" cx="197.85" cy="286.6" r="10.78"/>
                <circle class="cls-11" cx="195.73" cy="288.52" r="7.23"/>
              </g>
            </g>
            <path class="cls-14" d="M193.34,310.92c5.07,5.29,12.15,8.6,19.46,9.11,7.31.51,14.78-1.79,20.54-6.32,2.22-1.75,4.22-3.85,5.47-6.38"/>
          </g>
          <g>
            <path class="cls-2" d="M22.59,339.83c5.86,8.16,14.15,14.41,23.06,18.92,4.59,2.32,9.41,4.2,14.35,5.62,1.71.49,3.45.93,5.19,1.3-1.67,1.88-2.99,4.07-3.81,6.44-1.89,5.48-1,11.76,2.14,16.64-.95-.11-1.78-.65-2.68-.96-2.25-.78-4.95-.02-6.45,1.82-1.51,1.85-1.71,4.64-.49,6.69,1.17,1.96,3.37,3.06,5.56,3.68,4.03,1.13,8.88.7,11.65-2.43,2.21-2.49,3.01-6.01,2.53-9.38-.17-1.25-.83-2.25-.98-3.47-.61-5.03-.21-8.82,1.14-13.43.37-1.26.94-2.52,1.78-3.51l.3-.02c2.3-.15,4.58-.49,6.86-.63,2.26-.14,4.53-.19,6.79-.34,1.01.88,1.76,2.1,2.31,3.35,1.94,4.4,2.81,8.11,2.85,13.18,0,1.23-.52,2.31-.53,3.57-.03,3.41,1.2,6.79,3.71,8.98,3.15,2.75,8.02,2.55,11.87.92,2.09-.89,4.13-2.27,5.04-4.36.95-2.19.39-4.93-1.34-6.57-1.73-1.64-4.5-2.05-6.64-.98-.85.43-1.61,1.07-2.54,1.3,2.49-5.24,2.57-11.58,0-16.78-1.11-2.23-2.67-4.21-4.54-5.85,1.87-.66,3.7-1.43,5.5-2.23,4.66-2.09,9.11-4.65,13.26-7.64,8.13-5.87,15.16-13.45,19.7-22.43,3.86-7.63,5.75-16.17,5.2-24.72-2.09-32.53-40.89-72.32-72.89-65.64-31.9,6.66-54.44,40.51-55.76,73.9-.36,9.03,2.6,17.78,7.85,25.08Z"/>
            <g>
              <g>
                <circle class="cls-13" cx="59.23" cy="290.72" r="10.78"/>
                <circle class="cls-11" cx="61.53" cy="292.42" r="7.23"/>
              </g>
              <g>
                <circle class="cls-13" cx="94.24" cy="286.21" r="10.78"/>
                <circle class="cls-11" cx="96.53" cy="287.91" r="7.23"/>
              </g>
            </g>
            <path class="cls-14" d="M101.11,309.97c-4.53,5.76-11.25,9.75-18.48,10.98-7.23,1.23-14.89-.33-21.06-4.27-2.38-1.52-4.58-3.42-6.07-5.81"/>
          </g>
        </g>
        <rect class="cls-13" x="8.34" y="180.66" width="92.72" height="92.72"/>
        <rect class="cls-13" x="101.05" y="180.66" width="92.72" height="92.72"/>
      </g>
    </g>
  </g>
  <g>
    <rect class="cls-13" x="8.34" y="180.64" width="92.72" height="92.72"/>
    <g class="cls-7">
      <g>
        <g>
          <path class="cls-17" d="M274.52,332.95c-5.03,8.7-12.67,15.73-21.1,21.09-4.34,2.76-8.95,5.1-13.73,7-1.66.66-3.34,1.26-5.04,1.81,1.85,1.7,3.38,3.76,4.43,6.04,2.42,5.27,2.15,11.61-.5,16.77.93-.2,1.71-.82,2.57-1.22,2.16-1,4.92-.5,6.6,1.18,1.68,1.69,2.16,4.45,1.14,6.61-.97,2.06-3.05,3.38-5.17,4.2-3.9,1.52-8.77,1.57-11.84-1.28-2.44-2.26-3.58-5.68-3.44-9.09.05-1.26.61-2.32.63-3.55.11-5.07-.65-8.8-2.45-13.26-.49-1.22-1.18-2.41-2.11-3.32h-.3c-2.3.08-4.61-.02-6.89.05-2.26.08-4.53.25-6.79.32-.91.98-1.54,2.27-1.97,3.56-1.5,4.57-2,8.34-1.54,13.39.11,1.22.74,2.25.87,3.5.37,3.39-.53,6.88-2.82,9.3-2.87,3.05-7.73,3.33-11.72,2.08-2.17-.68-4.34-1.85-5.44-3.84-1.16-2.08-.87-4.87.69-6.67,1.56-1.8,4.28-2.48,6.51-1.63.89.34,1.7.91,2.65,1.04-2.99-4.97-3.7-11.27-1.64-16.7.89-2.33,2.24-4.45,3.94-6.27-1.92-.47-3.83-1.06-5.7-1.68-4.84-1.63-9.53-3.74-13.94-6.31-8.66-5.04-16.41-11.9-21.81-20.39-4.59-7.22-7.31-15.53-7.6-24.09-1.11-32.58,33.61-75.99,66.1-72.47,32.4,3.5,58.15,34.98,62.74,68.08,1.24,8.96-.84,17.95-5.35,25.73Z"/>
          <g>
            <g>
              <circle class="cls-13" cx="233.24" cy="287.67" r="10.78"/>
              <circle class="cls-11" cx="231.12" cy="289.59" r="7.23"/>
            </g>
            <g>
              <circle class="cls-13" cx="197.96" cy="286.62" r="10.78"/>
              <circle class="cls-11" cx="195.84" cy="288.54" r="7.23"/>
            </g>
          </g>
          <path class="cls-14" d="M193.45,310.94c5.07,5.29,12.15,8.6,19.46,9.11,7.31.51,14.78-1.79,20.54-6.32,2.22-1.75,4.22-3.85,5.47-6.38"/>
        </g>
        <g>
          <path class="cls-2" d="M22.71,339.85c5.86,8.16,14.15,14.41,23.06,18.92,4.59,2.32,9.41,4.2,14.35,5.62,1.71.49,3.45.93,5.19,1.3-1.67,1.88-2.99,4.07-3.81,6.44-1.89,5.48-1,11.76,2.14,16.64-.95-.11-1.78-.65-2.68-.96-2.25-.78-4.95-.02-6.45,1.82-1.51,1.85-1.71,4.64-.49,6.69,1.17,1.96,3.37,3.06,5.56,3.68,4.03,1.13,8.88.7,11.65-2.43,2.21-2.49,3.01-6.01,2.53-9.38-.17-1.25-.83-2.25-.98-3.47-.61-5.03-.21-8.82,1.14-13.43.37-1.26.94-2.52,1.78-3.51l.3-.02c2.3-.15,4.58-.49,6.86-.63,2.26-.14,4.53-.19,6.79-.34,1.01.88,1.76,2.1,2.31,3.35,1.94,4.4,2.81,8.11,2.85,13.18,0,1.23-.52,2.31-.53,3.57-.03,3.41,1.2,6.79,3.71,8.98,3.15,2.75,8.02,2.55,11.87.92,2.09-.89,4.13-2.27,5.04-4.36.95-2.19.39-4.93-1.34-6.57-1.73-1.64-4.5-2.05-6.64-.98-.85.43-1.61,1.07-2.54,1.3,2.49-5.24,2.57-11.58,0-16.78-1.11-2.23-2.67-4.21-4.54-5.85,1.87-.66,3.7-1.43,5.5-2.23,4.66-2.09,9.11-4.65,13.26-7.64,8.13-5.87,15.16-13.45,19.7-22.43,3.86-7.63,5.75-16.17,5.2-24.72-2.09-32.53-40.89-72.32-72.89-65.64-31.9,6.66-54.44,40.51-55.76,73.9-.36,9.03,2.6,17.78,7.85,25.08Z"/>
          <g>
            <g>
              <circle class="cls-13" cx="59.34" cy="290.74" r="10.78"/>
              <circle class="cls-11" cx="61.64" cy="292.43" r="7.23"/>
            </g>
            <g>
              <circle class="cls-13" cx="94.35" cy="286.23" r="10.78"/>
              <circle class="cls-11" cx="96.64" cy="287.93" r="7.23"/>
            </g>
          </g>
          <path class="cls-14" d="M101.22,309.99c-4.53,5.76-11.25,9.75-18.48,10.98-7.23,1.23-14.89-.33-21.06-4.27-2.38-1.52-4.58-3.42-6.07-5.81"/>
        </g>
      </g>
    </g>
  </g>
  <g>
    <rect class="cls-13" x="100.8" y="180.81" width="92.72" height="92.72"/>
    <g class="cls-10">
      <g>
        <g>
          <g>
            <path class="cls-17" d="M274.06,333.07c-5.03,8.7-12.67,15.73-21.1,21.09-4.34,2.76-8.95,5.1-13.73,7-1.66.66-3.34,1.26-5.04,1.81,1.85,1.7,3.38,3.76,4.43,6.04,2.42,5.27,2.15,11.61-.5,16.77.93-.2,1.71-.82,2.57-1.22,2.16-1,4.92-.5,6.6,1.18,1.68,1.69,2.16,4.45,1.14,6.61-.97,2.06-3.05,3.38-5.17,4.2-3.9,1.52-8.77,1.57-11.84-1.28-2.44-2.26-3.58-5.68-3.44-9.09.05-1.26.61-2.32.63-3.55.11-5.07-.65-8.8-2.45-13.26-.49-1.22-1.18-2.41-2.11-3.32h-.3c-2.3.08-4.61-.02-6.89.05-2.26.08-4.53.25-6.79.32-.91.98-1.54,2.27-1.97,3.56-1.5,4.57-2,8.34-1.54,13.39.11,1.22.74,2.25.87,3.5.37,3.39-.53,6.88-2.82,9.3-2.87,3.05-7.73,3.33-11.72,2.08-2.17-.68-4.34-1.85-5.44-3.84-1.16-2.08-.87-4.87.69-6.67,1.56-1.8,4.28-2.48,6.51-1.63.89.34,1.7.91,2.65,1.04-2.99-4.97-3.7-11.27-1.64-16.7.89-2.33,2.24-4.45,3.94-6.27-1.92-.47-3.83-1.06-5.7-1.68-4.84-1.63-9.53-3.74-13.94-6.31-8.66-5.04-16.41-11.9-21.81-20.39-4.59-7.22-7.31-15.53-7.6-24.09-1.11-32.58,33.61-75.99,66.1-72.47,32.4,3.5,58.15,34.98,62.74,68.08,1.24,8.96-.84,17.95-5.35,25.73Z"/>
            <g>
              <g>
                <circle class="cls-13" cx="232.78" cy="287.79" r="10.78"/>
                <circle class="cls-11" cx="230.66" cy="289.7" r="7.23"/>
              </g>
              <g>
                <circle class="cls-13" cx="197.5" cy="286.74" r="10.78"/>
                <circle class="cls-11" cx="195.39" cy="288.65" r="7.23"/>
              </g>
            </g>
            <path class="cls-14" d="M192.99,311.05c5.07,5.29,12.15,8.6,19.46,9.11,7.31.51,14.78-1.79,20.54-6.32,2.22-1.75,4.22-3.85,5.47-6.38"/>
          </g>
          <g>
            <path class="cls-2" d="M22.25,339.96c5.86,8.16,14.15,14.41,23.06,18.92,4.59,2.32,9.41,4.2,14.35,5.62,1.71.49,3.45.93,5.19,1.3-1.67,1.88-2.99,4.07-3.81,6.44-1.89,5.48-1,11.76,2.14,16.64-.95-.11-1.78-.65-2.68-.96-2.25-.78-4.95-.02-6.45,1.82-1.51,1.85-1.71,4.64-.49,6.69,1.17,1.96,3.37,3.06,5.56,3.68,4.03,1.13,8.88.7,11.65-2.43,2.21-2.49,3.01-6.01,2.53-9.38-.17-1.25-.83-2.25-.98-3.47-.61-5.03-.21-8.82,1.14-13.43.37-1.26.94-2.52,1.78-3.51l.3-.02c2.3-.15,4.58-.49,6.86-.63,2.26-.14,4.53-.19,6.79-.34,1.01.88,1.76,2.1,2.31,3.35,1.94,4.4,2.81,8.11,2.85,13.18,0,1.23-.52,2.31-.53,3.57-.03,3.41,1.2,6.79,3.71,8.98,3.15,2.75,8.02,2.55,11.87.92,2.09-.89,4.13-2.27,5.04-4.36.95-2.19.39-4.93-1.34-6.57-1.73-1.64-4.5-2.05-6.64-.98-.85.43-1.61,1.07-2.54,1.3,2.49-5.24,2.57-11.58,0-16.78-1.11-2.23-2.67-4.21-4.54-5.85,1.87-.66,3.7-1.43,5.5-2.23,4.66-2.09,9.11-4.65,13.26-7.64,8.13-5.87,15.16-13.45,19.7-22.43,3.86-7.63,5.75-16.17,5.2-24.72-2.09-32.53-40.89-72.32-72.89-65.64-31.9,6.66-54.44,40.51-55.76,73.9-.36,9.03,2.6,17.78,7.85,25.08Z"/>
            <g>
              <g>
                <circle class="cls-13" cx="58.89" cy="290.85" r="10.78"/>
                <circle class="cls-11" cx="61.18" cy="292.55" r="7.23"/>
              </g>
              <g>
                <circle class="cls-13" cx="93.89" cy="286.35" r="10.78"/>
                <circle class="cls-11" cx="96.19" cy="288.04" r="7.23"/>
              </g>
            </g>
            <path class="cls-14" d="M100.76,310.1c-4.53,5.76-11.25,9.75-18.48,10.98-7.23,1.23-14.89-.33-21.06-4.27-2.38-1.52-4.58-3.42-6.07-5.81"/>
          </g>
        </g>
        <rect class="cls-13" x="7.99" y="180.79" width="92.72" height="92.72"/>
      </g>
    </g>
  </g>
</svg>