<?xml version="1.0" encoding="UTF-8"?>
<svg id="Layer_1" data-name="Layer 1" xmlns="http://www.w3.org/2000/svg" xmlns:xlink="http://www.w3.org/1999/xlink" viewBox="0 0 294.48 639.36">
  <defs>
    <style>
      .cls-1, .cls-2, .cls-3 {
        fill: none;
      }

      .cls-4, .cls-5 {
        fill: #231f20;
      }

      .cls-6 {
        fill: #cfa9cf;
      }

      .cls-7 {
        letter-spacing: 0em;
      }

      .cls-8 {
        fill: #fff;
      }

      .cls-2 {
        stroke: #e8d0e5;
        stroke-width: 17.72px;
      }

      .cls-2, .cls-3 {
        stroke-linecap: round;
        stroke-miterlimit: 10;
      }

      .cls-5 {
        font-family: NeulisSans-Black, 'Neulis Sans';
        font-size: 23.58px;
        font-weight: 800;
      }

      .cls-9 {
        letter-spacing: -.03em;
      }

      .cls-10 {
        letter-spacing: 0em;
      }

      .cls-3 {
        stroke: #231f20;
        stroke-width: 7px;
      }

      .cls-11 {
        clip-path: url(#clippath);
      }

      .cls-12 {
        letter-spacing: 0em;
      }

      .cls-13 {
        letter-spacing: 0em;
      }
    </style>
    <clipPath id="clippath">
      <rect class="cls-1" x="0" y="0" width="294.48" height="639.36"/>
    </clipPath>
  </defs>
  <g class="cls-11">
    <g>
      <path class="cls-2" d="M268.72,311.17c0,67.09-54.39,121.48-121.48,121.48s-121.48-54.39-121.48-121.48"/>
      <path class="cls-2" d="M234.69,311.17c0,48.3-39.15,87.45-87.45,87.45s-87.45-39.15-87.45-87.45"/>
      <path class="cls-2" d="M200.66,311.17c0,29.5-23.92,53.42-53.42,53.42s-53.42-23.92-53.42-53.42"/>
      <path class="cls-2" d="M59.79,311.17c0-57.7,46.77-104.47,104.47-104.47,57.7,0,104.47,46.77,104.47,104.47"/>
      <path class="cls-2" d="M93.82,311.17c0-38.9,31.53-70.44,70.44-70.44,38.9,0,70.44,31.53,70.44,70.44"/>
      <path class="cls-2" d="M127.85,311.17c0-20.11,16.3-36.4,36.4-36.4,20.11,0,36.4,16.3,36.4,36.4"/>
    </g>
    <text class="cls-5" transform="translate(48.99 623.01)"><tspan x="0" y="0">t</tspan><tspan class="cls-10" x="9.41" y="0">r</tspan><tspan x="18.7" y="0">ace </tspan><tspan class="cls-9" x="66.07" y="0">y</tspan><tspan class="cls-7" x="78.85" y="0">our fi</tspan><tspan class="cls-12" x="137.04" y="0">n</tspan><tspan x="151.26" y="0">ge</tspan><tspan class="cls-13" x="179.93" y="0">r</tspan><tspan x="189.58" y="0">!</tspan></text>
    <g>
      <path class="cls-6" d="M257.65,117.18c1.15,8.16,2.5,17.14,2.83,19.42-.81-.02-1.55-.41-2.33-.61-1.95-.49-4.17.35-5.3,2.01-1.13,1.67-1.09,4.04.08,5.67,1.13,1.56,3.06,2.33,4.95,2.68,3.48.65,7.53-.07,9.63-2.91,2.03-2.74,1.67-6.5,1.22-9.88-.12-.9-1.11-9.03-2.2-16.71.45-.05.91-.12,1.36-.19.71-.11,1.41-.23,2.11-.37,1.26,7.66,2.77,15.74,2.92,16.63.58,3.36,1.37,7.06,4.13,9.06,2.86,2.09,6.94,1.55,10.06-.11,1.69-.91,3.31-2.22,3.92-4.04.64-1.91-.04-4.18-1.62-5.43-1.58-1.25-3.94-1.39-5.66-.33-.69.42-1.27,1.02-2.04,1.28-.37-2.3-1.78-11.37-3.14-19.55,21.25-8.32,39.48-29.16,35.88-52.67-4.18-27.23-40.63-50.78-67.07-42.78-26.37,7.98-43.17,34.34-40.62,59.29,2.44,23.93,27.78,38.31,50.88,39.54Z"/>
      <g>
        <g>
          <circle class="cls-8" cx="272.57" cy="49.55" r="9.11"/>
          <circle class="cls-4" cx="271.1" cy="51.46" r="6.11"/>
        </g>
        <g>
          <circle class="cls-8" cx="243.09" cy="54.07" r="9.11"/>
          <circle class="cls-4" cx="241.62" cy="55.98" r="6.11"/>
        </g>
      </g>
      <path class="cls-3" d="M279.66,67.12c-3.39,5.19-8.75,9.05-14.74,10.62-5.99,1.57-12.56.83-18.05-2.03-2.12-1.1-4.11-2.54-5.55-4.44"/>
    </g>
  </g>
</svg>