<?xml version="1.0" encoding="UTF-8"?>
<svg id="Layer_1" data-name="Layer 1" xmlns="http://www.w3.org/2000/svg" viewBox="0 0 294.48 639.36">
  <defs>
    <style>
      .cls-1, .cls-2 {
        fill: #231f20;
      }

      .cls-3 {
        fill: #cfa9cf;
      }

      .cls-4 {
        fill: #719bd1;
      }

      .cls-5 {
        letter-spacing: 0em;
      }

      .cls-6 {
        fill: #fff;
      }

      .cls-7 {
        stroke-width: 1.63px;
      }

      .cls-7, .cls-8, .cls-9, .cls-10 {
        fill: none;
        stroke: #231f20;
      }

      .cls-7, .cls-9, .cls-10 {
        stroke-linecap: round;
      }

      .cls-7, .cls-10 {
        stroke-linejoin: round;
      }

      .cls-11 {
        fill: #f4d44c;
      }

      .cls-8, .cls-9 {
        stroke-miterlimit: 10;
      }

      .cls-8, .cls-10 {
        stroke-width: 2px;
      }

      .cls-2 {
        font-family: NeulisSans-Black, 'Neulis Sans';
        font-size: 23.58px;
        font-weight: 800;
      }

      .cls-12 {
        fill: #dce250;
      }

      .cls-9 {
        stroke-width: 5.1px;
      }

      .cls-13 {
        letter-spacing: .02em;
      }

      .cls-14 {
        letter-spacing: 0em;
      }

      .cls-15 {
        letter-spacing: 0em;
      }
    </style>
  </defs>
  <text class="cls-2" transform="translate(55.08 623.01)"><tspan x="0" y="0">so</tspan><tspan class="cls-13" x="25.68" y="0">r</tspan><tspan x="35.49" y="0">t t</tspan><tspan class="cls-14" x="59.14" y="0">h</tspan><tspan x="73.4" y="0">e c</tspan><tspan class="cls-14" x="106.08" y="0">h</tspan><tspan x="120.35" y="0">ar</tspan><tspan class="cls-15" x="144.45" y="0">m</tspan><tspan class="cls-5" x="165.76" y="0">s!</tspan></text>
  <g>
    <path class="cls-12" d="M277.31,73.87c-2.65,5.37-6.91,9.86-11.7,13.38-2.47,1.81-5.12,3.39-7.89,4.71-.96.46-1.94.88-2.93,1.27,1.17.94,2.16,2.1,2.87,3.41,1.65,3.04,1.74,6.82.37,9.99.55-.16.98-.56,1.48-.83,1.25-.68,2.91-.5,3.97.44,1.07.94,1.46,2.56.94,3.88-.49,1.26-1.68,2.13-2.91,2.71-2.26,1.06-5.15,1.28-7.09-.29-1.54-1.25-2.36-3.24-2.41-5.27-.02-.75.27-1.4.24-2.14-.13-3.02-.74-5.21-1.98-7.78-.34-.7-.8-1.39-1.39-1.89l-.18.02c-1.36.13-2.74.16-4.09.3s-2.68.33-4.02.46c-.5.62-.83,1.41-1.03,2.2-.71,2.77-.86,5.04-.38,8.02.11.72.53,1.31.66,2.04.35,2-.04,4.11-1.3,5.64-1.58,1.93-4.46,2.29-6.89,1.7-1.32-.32-2.65-.93-3.39-2.07-.77-1.19-.71-2.86.15-3.99.86-1.13,2.45-1.64,3.8-1.23.54.17,1.05.47,1.62.51-1.98-2.83-2.65-6.55-1.64-9.86.43-1.42,1.16-2.74,2.09-3.88-1.16-.2-2.32-.48-3.45-.77-2.94-.77-5.81-1.84-8.54-3.2-5.35-2.65-10.23-6.42-13.77-11.25-3.01-4.11-4.96-8.94-5.48-14.02-1.96-19.33,16.95-46.51,36.41-45.71,19.4.79,35.96,18.48,40.01,37.98,1.09,5.27.21,10.7-2.16,15.51Z"/>
    <g>
      <g>
        <circle class="cls-6" cx="250.96" cy="48.6" r="6.42"/>
        <circle class="cls-1" cx="249.78" cy="49.82" r="4.31"/>
      </g>
      <g>
        <circle class="cls-6" cx="229.95" cy="49.38" r="6.42"/>
        <circle class="cls-1" cx="228.77" cy="50.6" r="4.31"/>
      </g>
    </g>
    <path class="cls-9" d="M228.24,64.01c3.23,2.94,7.57,4.63,11.93,4.64,4.37.01,8.72-1.65,11.96-4.57,1.25-1.13,2.35-2.46,3-4.01"/>
  </g>
  <g>
    <path class="cls-11" d="M277.31,533.35c-2.65,5.37-6.91,9.86-11.7,13.38-2.47,1.81-5.12,3.39-7.89,4.71-.96.46-1.94.88-2.93,1.27,1.17.94,2.16,2.1,2.87,3.41,1.65,3.04,1.74,6.82.37,9.99.55-.16.98-.56,1.48-.83,1.25-.68,2.91-.5,3.97.44,1.07.94,1.46,2.56.94,3.88-.49,1.26-1.68,2.13-2.91,2.71-2.26,1.06-5.15,1.28-7.09-.29-1.54-1.25-2.36-3.24-2.41-5.27-.02-.75.27-1.4.24-2.14-.13-3.02-.74-5.21-1.98-7.78-.34-.7-.8-1.39-1.39-1.89l-.18.02c-1.36.13-2.74.16-4.09.3s-2.68.33-4.02.46c-.5.62-.83,1.41-1.03,2.2-.71,2.77-.86,5.04-.38,8.02.11.72.53,1.31.66,2.04.35,2-.04,4.11-1.3,5.64-1.58,1.93-4.46,2.29-6.89,1.7-1.32-.32-2.65-.93-3.39-2.07-.77-1.19-.71-2.86.15-3.99.86-1.13,2.45-1.64,3.8-1.23.54.17,1.05.47,1.62.51-1.98-2.83-2.65-6.55-1.64-9.86.43-1.42,1.16-2.74,2.09-3.88-1.16-.2-2.32-.48-3.45-.77-2.94-.77-5.81-1.84-8.54-3.2-5.35-2.65-10.23-6.42-13.77-11.25-3.01-4.11-4.96-8.94-5.48-14.02-1.96-19.33,16.95-46.51,36.41-45.71,19.4.79,35.96,18.48,40.01,37.98,1.09,5.27.21,10.7-2.16,15.51Z"/>
    <g>
      <g>
        <circle class="cls-6" cx="250.96" cy="508.08" r="6.42"/>
        <circle class="cls-1" cx="249.78" cy="509.3" r="4.31"/>
      </g>
      <g>
        <circle class="cls-6" cx="229.95" cy="508.85" r="6.42"/>
        <circle class="cls-1" cx="228.77" cy="510.08" r="4.31"/>
      </g>
    </g>
    <path class="cls-9" d="M228.24,523.49c3.23,2.94,7.57,4.63,11.93,4.64s8.72-1.65,11.96-4.57c1.25-1.13,2.35-2.46,3-4.01"/>
  </g>
  <g>
    <path class="cls-4" d="M17.17,73.87c2.65,5.37,6.91,9.86,11.7,13.38,2.47,1.81,5.12,3.39,7.89,4.71.96.46,1.94.88,2.93,1.27-1.17.94-2.16,2.1-2.87,3.41-1.65,3.04-1.74,6.82-.37,9.99-.55-.16-.98-.56-1.48-.83-1.25-.68-2.91-.5-3.97.44-1.07.94-1.46,2.56-.94,3.88.49,1.26,1.68,2.13,2.91,2.71,2.26,1.06,5.15,1.28,7.09-.29,1.54-1.25,2.36-3.24,2.41-5.27.02-.75-.27-1.4-.24-2.14.13-3.02.74-5.21,1.98-7.78.34-.7.8-1.39,1.39-1.89l.18.02c1.36.13,2.74.16,4.09.3s2.68.33,4.02.46c.5.62.83,1.41,1.03,2.2.71,2.77.86,5.04.38,8.02-.11.72-.53,1.31-.66,2.04-.35,2,.04,4.11,1.3,5.64,1.58,1.93,4.46,2.29,6.89,1.7,1.32-.32,2.65-.93,3.39-2.07.77-1.19.71-2.86-.15-3.99-.86-1.13-2.45-1.64-3.8-1.23-.54.17-1.05.47-1.62.51,1.98-2.83,2.65-6.55,1.64-9.86-.43-1.42-1.16-2.74-2.09-3.88,1.16-.2,2.32-.48,3.45-.77,2.94-.77,5.81-1.84,8.54-3.2,5.35-2.65,10.23-6.42,13.77-11.25,3.01-4.11,4.96-8.94,5.48-14.02,1.96-19.33-16.95-46.51-36.41-45.71-19.4.79-35.96,18.48-40.01,37.98-1.09,5.27-.21,10.7,2.16,15.51Z"/>
    <g>
      <g>
        <circle class="cls-6" cx="43.52" cy="48.6" r="6.42"/>
        <circle class="cls-1" cx="44.7" cy="49.82" r="4.31"/>
      </g>
      <g>
        <circle class="cls-6" cx="64.53" cy="49.38" r="6.42"/>
        <circle class="cls-1" cx="65.71" cy="50.6" r="4.31"/>
      </g>
    </g>
    <path class="cls-9" d="M66.24,64.01c-3.23,2.94-7.57,4.63-11.93,4.64-4.37.01-8.72-1.65-11.96-4.57-1.25-1.13-2.35-2.46-3-4.01"/>
  </g>
  <g>
    <path class="cls-3" d="M17.17,533.35c2.65,5.37,6.91,9.86,11.7,13.38,2.47,1.81,5.12,3.39,7.89,4.71.96.46,1.94.88,2.93,1.27-1.17.94-2.16,2.1-2.87,3.41-1.65,3.04-1.74,6.82-.37,9.99-.55-.16-.98-.56-1.48-.83-1.25-.68-2.91-.5-3.97.44-1.07.94-1.46,2.56-.94,3.88.49,1.26,1.68,2.13,2.91,2.71,2.26,1.06,5.15,1.28,7.09-.29,1.54-1.25,2.36-3.24,2.41-5.27.02-.75-.27-1.4-.24-2.14.13-3.02.74-5.21,1.98-7.78.34-.7.8-1.39,1.39-1.89l.18.02c1.36.13,2.74.16,4.09.3s2.68.33,4.02.46c.5.62.83,1.41,1.03,2.2.71,2.77.86,5.04.38,8.02-.11.72-.53,1.31-.66,2.04-.35,2,.04,4.11,1.3,5.64,1.58,1.93,4.46,2.29,6.89,1.7,1.32-.32,2.65-.93,3.39-2.07.77-1.19.71-2.86-.15-3.99-.86-1.13-2.45-1.64-3.8-1.23-.54.17-1.05.47-1.62.51,1.98-2.83,2.65-6.55,1.64-9.86-.43-1.42-1.16-2.74-2.09-3.88,1.16-.2,2.32-.48,3.45-.77,2.94-.77,5.81-1.84,8.54-3.2,5.35-2.65,10.23-6.42,13.77-11.25,3.01-4.11,4.96-8.94,5.48-14.02,1.96-19.33-16.95-46.51-36.41-45.71-19.4.79-35.96,18.48-40.01,37.98-1.09,5.27-.21,10.7,2.16,15.51Z"/>
    <g>
      <g>
        <circle class="cls-6" cx="43.52" cy="508.08" r="6.42"/>
        <circle class="cls-1" cx="44.7" cy="509.3" r="4.31"/>
      </g>
      <g>
        <circle class="cls-6" cx="64.53" cy="508.85" r="6.42"/>
        <circle class="cls-1" cx="65.71" cy="510.08" r="4.31"/>
      </g>
    </g>
    <path class="cls-9" d="M66.24,523.49c-3.23,2.94-7.57,4.63-11.93,4.64-4.37.01-8.72-1.65-11.96-4.57-1.25-1.13-2.35-2.46-3-4.01"/>
  </g>
  <path class="cls-11" d="M159.72,291.33l-8.47-2.51c-1.2-.36-2.5-.03-3.38.86l-6.24,6.26c-2.11,2.12-5.74.68-5.82-2.32l-.23-8.83c-.03-1.25-.75-2.38-1.86-2.95l-7.88-4c-2.67-1.35-2.42-5.25.41-6.25l8.33-2.95c1.18-.42,2.03-1.45,2.23-2.68l1.37-8.73c.46-2.96,4.24-3.92,6.07-1.54l5.38,7.01c.76.99,2,1.49,3.24,1.29l8.72-1.4c2.96-.47,5.04,2.82,3.34,5.29l-5.01,7.28c-.71,1.03-.8,2.37-.23,3.48l4.02,7.86c1.36,2.67-1.13,5.67-4,4.82Z"/>
  <g id="_6c02vO" data-name="6c02vO">
    <path class="cls-12" d="M187.33,195.44c-.21.21.05,1.73.02,2.19-.28,4.18-3.64,7.95-8,7.65-3.55-.23-6.08-2.47-7.94-5.31-.91,5.52-2.69,11.04-5.44,15.92-.34.6-.85,1.58-1.28,2.07-1.46,1.63-4.16.2-3.65-2,.2-.83,1.6-2.85,2.08-3.82,2.08-4.19,3.5-8.74,4.13-13.38-.97.78-1.76,1.54-2.87,2.13-4.8,2.57-10.33,1.17-12.06-4.29-.73-2.3-.11-4.34.66-6.54-2.49-.9-4.57-2.24-5.66-4.74-2.35-5.4,1.68-10.42,7.01-11.36.59-.11,2.22-.31,2.74-.23l2.81.44c-.27-1.52-.71-2.95-.67-4.54.13-5.89,4.9-10.38,10.83-8.13,1.92.72,3.21,2.2,4.35,3.83,1.16-.63,2.22-1.55,3.51-1.96,7.78-2.5,12.21,5.68,9.14,12.37-.41.9-1.03,1.59-1.41,2.48l2.94.46c1.76.28,4.54,2.37,5.66,3.76,4.72,5.9.19,13.16-6.9,13.01Z"/>
  </g>
  <g id="_5f9R5C.tif" data-name="5f9R5C.tif">
    <path class="cls-3" d="M256.65,227.55c-5.59,6.26-12.4,11.8-19.14,16.81-6.73-5.01-13.54-10.55-19.14-16.81-6.39-7.15-13.73-17.22-8.16-27.02,2.18-3.85,6.6-6.96,11.08-7.37h3.34c.83.18,1.68.3,2.51.54,5.13,1.45,9.09,5.78,10.36,10.9,1.28-5.12,5.23-9.45,10.36-10.9.83-.24,1.67-.36,2.51-.54h3.34c4.48.41,8.9,3.52,11.08,7.37,5.57,9.8-1.77,19.87-8.16,27.02Z"/>
  </g>
  <g id="_6c02vO-2" data-name="6c02vO">
    <path class="cls-3" d="M176.05,364.87c-.19.19.05,1.62.02,2.04-.26,3.9-3.39,7.41-7.47,7.14-3.31-.22-5.67-2.31-7.4-4.95-.85,5.15-2.51,10.3-5.08,14.85-.31.56-.79,1.47-1.2,1.93-1.36,1.52-3.88.19-3.4-1.87.18-.77,1.49-2.66,1.94-3.56,1.94-3.91,3.26-8.15,3.85-12.49-.9.73-1.64,1.44-2.68,1.99-4.48,2.39-9.64,1.09-11.25-4-.68-2.15-.11-4.05.62-6.1-2.32-.84-4.26-2.09-5.28-4.42-2.2-5.04,1.57-9.72,6.54-10.6.55-.1,2.07-.29,2.56-.22l2.62.41c-.26-1.42-.66-2.75-.63-4.24.12-5.5,4.57-9.69,10.1-7.59,1.79.68,2.99,2.05,4.06,3.57,1.08-.59,2.07-1.44,3.28-1.83,7.26-2.33,11.39,5.29,8.52,11.54-.39.84-.96,1.48-1.31,2.31l2.75.43c1.64.26,4.24,2.21,5.28,3.51,4.4,5.5.18,12.27-6.43,12.14Z"/>
  </g>
  <g id="_6c02vO-3" data-name="6c02vO">
    <path class="cls-4" d="M265.96,308.86c-.13.3.8,1.79.96,2.27,1.51,4.48-.37,9.85-5.05,11.42-3.8,1.29-7.4.04-10.56-2.12,1.43,6.14,1.95,12.67,1.19,18.94-.09.77-.2,2.01-.45,2.71-.82,2.33-4.25,2.01-4.66-.52-.15-.95.43-3.66.52-4.87.37-5.27-.12-10.62-1.46-15.73-.67,1.23-1.17,2.37-2.07,3.46-3.9,4.75-10.27,5.67-14.42.73-1.75-2.09-1.99-4.48-2.13-7.1-2.98.14-5.73-.37-7.94-2.5-4.78-4.62-2.74-11.59,2.41-14.86.57-.37,2.18-1.28,2.76-1.42l3.11-.75c-.94-1.46-2.01-2.77-2.66-4.45-2.4-6.2.64-12.94,7.79-13.15,2.31-.07,4.29.91,6.18,2.12.94-1.16,1.64-2.57,2.82-3.56,7.03-5.96,15.17.66,14.86,8.96-.05,1.11-.39,2.1-.4,3.19l3.27-.79c1.96-.47,5.76.51,7.52,1.48,7.46,4.12,5.87,13.63-1.58,16.54Z"/>
  </g>
  <g id="_6c02vO-4" data-name="6c02vO">
    <path class="cls-11" d="M35.84,297.12c.2.2-.05,1.7-.02,2.15.27,4.1,3.57,7.79,7.85,7.5,3.48-.23,5.96-2.42,7.78-5.21.89,5.41,2.64,10.83,5.34,15.61.33.59.83,1.55,1.26,2.03,1.43,1.6,4.08.2,3.58-1.96-.19-.81-1.56-2.8-2.04-3.74-2.04-4.11-3.43-8.57-4.05-13.12.95.77,1.73,1.51,2.81,2.09,4.71,2.52,10.13,1.14,11.83-4.21.72-2.26.11-4.26-.65-6.41,2.44-.88,4.48-2.2,5.55-4.65,2.31-5.3-1.65-10.22-6.87-11.14-.58-.1-2.18-.31-2.69-.23l-2.75.43c.27-1.49.69-2.89.66-4.45-.13-5.78-4.81-10.18-10.62-7.98-1.88.71-3.15,2.16-4.26,3.76-1.14-.62-2.17-1.52-3.45-1.92-7.63-2.45-11.97,5.57-8.96,12.13.41.88,1.01,1.56,1.38,2.43l-2.89.45c-1.73.27-4.45,2.32-5.55,3.69-4.63,5.79-.19,12.9,6.76,12.76Z"/>
  </g>
  <g id="_5f9R5C.tif-2" data-name="5f9R5C.tif">
    <path class="cls-11" d="M79.75,433.73c-2.97,3.95-6.69,7.53-10.4,10.81-4.2-2.61-8.47-5.52-12.06-8.92-4.1-3.88-8.9-9.42-6.12-15.45,1.09-2.36,3.53-4.41,6.14-4.87l1.96-.17c.5.06,1,.09,1.5.19,3.08.6,5.62,2.94,6.62,5.88.5-3.07,2.6-5.8,5.54-6.91.47-.18.96-.29,1.44-.44l1.96-.17c2.65.02,5.39,1.63,6.87,3.77,3.75,5.47-.06,11.75-3.45,16.25Z"/>
  </g>
  <g id="_5f9R5C.tif-3" data-name="5f9R5C.tif">
    <path class="cls-4" d="M264.7,422.79c-5.88,4.42-12.69,8.01-19.33,11.17-4.93-5.46-9.83-11.39-13.57-17.73-4.27-7.24-8.84-17.16-2.38-24.62,2.54-2.93,6.87-4.85,10.79-4.43l2.87.57c.69.3,1.39.55,2.06.89,4.16,2.12,6.82,6.52,7.04,11.14,1.98-4.18,6.12-7.23,10.77-7.59.75-.06,1.5-.02,2.25-.03l2.87.57c3.78,1.12,7.05,4.55,8.26,8.23,3.11,9.38-4.93,16.78-11.64,21.83Z"/>
  </g>
  <g id="_5f9R5C.tif-4" data-name="5f9R5C.tif">
    <path class="cls-12" d="M66.85,212.63c-2.79,6.81-6.8,13.37-10.9,19.49-7.03-2.17-14.28-4.75-20.73-8.29-7.37-4.04-16.38-10.22-14.64-19.94.68-3.82,3.42-7.68,7-9.33l2.76-.98c.74-.09,1.47-.24,2.23-.29,4.66-.3,9.2,2.11,11.75,5.98-.44-4.61,1.56-9.34,5.37-12.03.62-.44,1.28-.78,1.91-1.18l2.76-.98c3.82-.97,8.38.31,11.31,2.85,7.47,6.47,4.35,16.94,1.16,24.71Z"/>
  </g>
  <path class="cls-3" d="M117.04,171.13l-7.74-7.76c-1.17-1.18-2.9-1.62-4.49-1.14l-10.51,3.12c-3.81,1.13-7.13-2.86-5.32-6.4l4.99-9.76c.76-1.48.64-3.26-.3-4.62l-6.21-9.03c-2.25-3.28.52-7.66,4.44-7.03l10.83,1.73c1.64.26,3.29-.4,4.31-1.71l6.67-8.7c2.42-3.16,7.45-1.88,8.06,2.05l1.7,10.83c.26,1.64,1.39,3.01,2.96,3.57l10.34,3.66c3.75,1.33,4.09,6.5.54,8.3l-9.78,4.96c-1.48.75-2.43,2.26-2.48,3.92l-.28,10.96c-.1,3.98-4.92,5.9-7.73,3.08Z"/>
  <path class="cls-12" d="M132.39,477.46l13.74-4.07c1.59-.47,3.32-.03,4.49,1.14l10.12,10.15c2.81,2.82,7.63.9,7.73-3.08l.37-14.33c.04-1.66.99-3.17,2.48-3.92l12.78-6.49c3.55-1.8,3.21-6.97-.54-8.3l-13.51-4.78c-1.57-.55-2.7-1.92-2.96-3.57l-2.22-14.16c-.62-3.93-5.64-5.21-8.06-2.05l-8.72,11.37c-1.01,1.32-2.66,1.98-4.31,1.71l-14.15-2.26c-3.93-.63-6.7,3.75-4.44,7.03l8.12,11.81c.94,1.37,1.06,3.15.3,4.62l-6.53,12.76c-1.81,3.54,1.5,7.53,5.32,6.4Z"/>
  <path class="cls-4" d="M92.02,385.87l-10.51-3.12c-1.59-.47-3.32-.03-4.49,1.14l-7.74,7.76c-2.81,2.82-7.63.9-7.73-3.08l-.28-10.96c-.04-1.66-.99-3.17-2.48-3.92l-9.78-4.96c-3.55-1.8-3.21-6.97.54-8.3l10.34-3.66c1.57-.55,2.7-1.92,2.96-3.57l1.7-10.83c.62-3.93,5.64-5.21,8.06-2.05l6.67,8.7c1.01,1.32,2.66,1.98,4.31,1.71l10.83-1.73c3.93-.63,6.7,3.75,4.44,7.03l-6.21,9.03c-.94,1.37-1.06,3.15-.3,4.62l4.99,9.76c1.81,3.54-1.5,7.53-5.32,6.4Z"/>
  <g>
    <circle class="cls-10" cx="19.47" cy="20.37" r="11.18"/>
    <g>
      <polyline class="cls-10" points="12.21 22.55 19.16 13.32 26.72 22.55"/>
      <line class="cls-10" x1="16.29" y1="21.72" x2="16.29" y2="26.77"/>
      <line class="cls-10" x1="22.65" y1="21.72" x2="22.65" y2="26.77"/>
    </g>
  </g>
  <circle class="cls-8" cx="275.01" cy="20.37" r="11.18"/>
  <g>
    <line class="cls-7" x1="266.89" y1="21.06" x2="276.77" y2="21.06"/>
    <polyline class="cls-7" points="277.18 14.88 283.13 20.84 278.12 25.86"/>
  </g>
</svg>