<?xml version="1.0" encoding="UTF-8"?>
<svg id="Layer_1" data-name="Layer 1" xmlns="http://www.w3.org/2000/svg" viewBox="0 0 577.48 535.34">
  <defs>
    <style>
      .cls-1 {
        fill: #7a9acd;
      }

      .cls-2 {
        fill: #221f20;
      }

      .cls-3 {
        fill: #fff;
      }

      .cls-4 {
        fill: none;
        stroke: #221f20;
        stroke-linecap: round;
        stroke-miterlimit: 10;
        stroke-width: 21px;
      }
    </style>
  </defs>
  <path class="cls-1" d="M129.72,329.04c14.39,20.04,34.73,35.37,56.6,46.44,11.27,5.69,23.09,10.3,35.23,13.8,4.21,1.2,8.46,2.27,12.75,3.2-4.1,4.61-7.35,9.99-9.36,15.82-4.65,13.46-2.45,28.87,5.25,40.84-2.33-.26-4.37-1.59-6.58-2.36-5.52-1.92-12.15-.05-15.84,4.48-3.69,4.54-4.2,11.4-1.2,16.42,2.87,4.8,8.27,7.51,13.64,9.03,9.89,2.77,21.8,1.73,28.61-5.97,5.42-6.12,7.38-14.75,6.22-23.03-.42-3.06-2.04-5.53-2.4-8.52-1.49-12.35-.52-21.66,2.8-32.97.92-3.09,2.3-6.18,4.36-8.62l.74-.05c5.63-.38,11.25-1.19,16.83-1.55,5.54-.36,11.13-.47,16.66-.84,2.47,2.17,4.32,5.17,5.67,8.22,4.75,10.8,6.89,19.9,6.99,32.34.02,3.01-1.26,5.67-1.3,8.76-.08,8.36,2.96,16.67,9.12,22.05,7.74,6.76,19.68,6.27,29.13,2.26,5.13-2.19,10.14-5.57,12.37-10.7,2.33-5.36.95-12.11-3.29-16.13-4.24-4.01-11.05-5.02-16.29-2.41-2.09,1.05-3.95,2.63-6.22,3.19,6.12-12.85,6.32-28.42-.02-41.18-2.72-5.47-6.55-10.34-11.14-14.36,4.58-1.61,9.09-3.5,13.51-5.48,11.43-5.13,22.37-11.42,32.54-18.76,19.95-14.4,37.21-33.01,48.36-55.05,9.47-18.74,14.11-39.68,12.76-60.67-5.13-79.85-100.37-177.52-178.9-161.12-78.3,16.34-133.62,99.44-136.87,181.4-.88,22.17,6.37,43.64,19.26,61.56Z"/>
  <g>
    <g>
      <circle class="cls-3" cx="219.65" cy="208.5" r="26.46"/>
      <circle class="cls-2" cx="225.28" cy="212.67" r="17.76"/>
    </g>
    <g>
      <circle class="cls-3" cx="305.56" cy="197.44" r="26.46"/>
      <circle class="cls-2" cx="311.19" cy="201.61" r="17.76"/>
    </g>
  </g>
  <path class="cls-4" d="M322.43,255.75c-11.12,14.14-27.61,23.94-45.35,26.95-17.73,3.01-36.54-.81-51.7-10.49-5.84-3.73-11.23-8.39-14.91-14.27"/>
</svg>